<!-- Le logo de Bali Découverte, vectorisé depuis le fichier fourni par
     Agus (PNG 1024 px, sans texte). Ce n'est PAS un redessin : le tracé
     suit l'original, couche de couleur par couche de couleur.

     Comment il a été produit, pour pouvoir le refaire :
       1. postérisation sur les 7 couleurs réelles du logo — le PNG en
          contenait 2 500 après anticrénelage, et les tracer toutes
          donnait 1,2 Mo pour 2 753 chemins ;
       2. un masque binaire par couleur, tracé séparément (vtracer en
          mode `binary`, spline) — c'est ce qui garantit exactement
          7 aplats et pas 94 ;
       3. réassemblage en <g fill> par couleur, du fond vers les
          contours ; coordonnées arrondies au dixième.

     ⚠️ Chaque <path> porte son propre `transform="translate(...)"`.
     Extraire les seuls attributs `d` fait tout s'effondrer sur
     l'origine — c'est arrivé, le résultat ressemblait à un tas.

     Servi en fichier externe et non inliné : 80 ko bruts, 28,6 ko une
     fois compressé. Inliné dans les huit pages il serait renvoyé huit
     fois ; en fichier, le navigateur le met en cache une fois. -->
<svg xmlns="http://www.w3.org/2000/svg" viewBox="0 0 512 519" fill-rule="evenodd">
  <!-- ⚠️ Le disque blanc du logo, POSÉ DANS LE FICHIER et non autour.
       Une plaque extérieure a d'abord été essayée dans la barre : elle
       débordait le dessin et cerclait le logo d'un halo. Ici le blanc
       s'arrête où le disque des terrasses s'arrête.
       Géométrie ajustée à l'œil sur le fond réel de la barre, après avoir
       mesuré le cercle que décrivent les terrasses dans le PNG source
       (centre 468/490, rayon 402 sur 1024 px de large). Un rayon plus
       grand laisse voir une lune blanche à gauche, un plus petit laisse
       les terrasses déborder en bas.
       Ce n'est pas une trahison de l'original : le logo a été dessiné sur
       blanc, c'est son fond natif. Le porter avec lui le rend posable sur
       n'importe quelle couleur. -->
  <circle id="marque-fond" cx="234" cy="248" r="208" fill="#ffffff"/><g fill="#73ad46"><path d="M0 0 C3 -0.7 4.8 -0.9 7.8 -0.7 C8.5 -0.7 9.3 -0.6 10.1 -0.6 C35.9 0.6 35.9 0.6 44 6 C44.1 8.5 44.1 8.5 43 11 C37 13.3 30.8 13.6 24.4 14.1 C23.4 14.2 22.3 14.3 21.2 14.4 C5.6 15.6 5.6 15.6 -2 15 C-3 14 -3 14 -3.2 10.9 C-3 6.4 -2.3 3.8 0 0 Z " transform="translate(40,187)"/><path d="M0 0 C2.3 -0.6 2.3 -0.6 5.2 -0.4 C5.8 -0.4 5.8 -0.4 8.5 -0.3 C14.5 0.2 20.4 0.9 26.3 1.8 C27.5 2 28.8 2.1 30 2.3 C42.2 4.1 42.2 4.1 47 7 C47 8.3 47 9.6 47 11 C42.8 13.8 38.9 14.5 34 15.1 C33.3 15.2 32.6 15.2 31.9 15.3 C22.5 16.3 13.1 17 3.7 17.6 C2.7 17.7 1.7 17.8 0.7 17.8 C-12.9 18.7 -26.5 19.3 -40.2 19.2 C-40.9 19.2 -41.7 19.2 -42.5 19.2 C-54.6 19.2 -54.6 19.2 -57 18 C-56.5 16.1 -56.5 16.1 -55 14 C-52.5 13.4 -50.3 13 -47.7 12.8 C-46.9 12.7 -46.2 12.6 -45.4 12.6 C-43.1 12.3 -40.7 12.1 -38.3 11.9 C-36.8 11.7 -35.2 11.6 -33.7 11.4 C-32.9 11.3 -32.1 11.2 -31.4 11.2 C-30.6 11.1 -29.8 11 -29.1 10.9 C-28.3 10.9 -27.5 10.8 -26.8 10.7 C-24.5 10.5 -22.3 10.2 -20 10 C-19.3 9.9 -18.5 9.8 -17.8 9.8 C-15.7 9.6 -13.6 9.3 -11.5 9.1 C-10.4 8.9 -9.2 8.8 -7.9 8.7 C-4.8 8 -3.8 7.6 -2 5 C-1.7 4.1 -1.4 3.2 -1.1 2.3 C-0.8 1.6 -0.4 0.8 0 0 Z " transform="translate(92,200)"/><path d="M0 0 C5.4 0.1 10.8 0.8 16.2 1.5 C17.1 1.6 18.1 1.8 19.1 1.9 C24.6 2.6 29.1 3.7 34.1 6.2 C33.9 8.6 33.9 8.6 33.1 11.2 C28.7 13.1 24.5 13.7 19.8 14.1 C19.1 14.2 18.3 14.3 17.6 14.4 C15.2 14.6 12.8 14.8 10.4 15.1 C9.6 15.2 8.8 15.2 7.9 15.3 C-7.8 16.9 -23.5 18.2 -39.2 19.4 C-40.3 19.5 -41.4 19.6 -42.5 19.7 C-61.4 21.1 -80.3 22.4 -99.3 22.4 C-101.6 22.4 -104 22.4 -106.3 22.4 C-107.8 22.4 -109.3 22.4 -110.8 22.4 C-111.5 22.4 -112.2 22.5 -113 22.5 C-114.6 22.5 -116.3 22.3 -117.9 22.2 C-118.3 21.5 -118.6 20.9 -118.9 20.2 C-111.4 18.3 -103.8 17.5 -96 16.8 C-93.7 16.6 -91.3 16.4 -89 16.2 C-82.3 15.6 -75.6 15 -68.9 14.4 C-36.4 11.5 -36.4 11.5 -21.4 9.3 C-20.4 9.2 -19.4 9 -18.3 8.9 C-12.6 8 -9.6 6.9 -5.9 2.2 C-3.9 0.2 -3.9 0.2 0 0 Z " transform="translate(151.9,213.8)"/><path d="M0 0 C4.3 -0.1 8.5 -0.1 12.8 -0.1 C13.4 -0.1 13.4 -0.1 16.4 -0.2 C35.1 -0.3 35.1 -0.3 39.8 3.4 C40.2 3.9 40.6 4.5 41 5 C40.6 7.5 40.6 7.5 39 10 C-2.9 30.3 -67.5 22.9 -113.6 25.7 C-115 25.8 -116.3 25.9 -117.7 25.9 C-120.1 26.1 -122.6 26.2 -125.1 26.4 C-126.2 26.4 -127.3 26.5 -128.5 26.6 C-129.5 26.6 -130.6 26.7 -131.7 26.8 C-134 26.9 -136.3 27.1 -138.6 27.3 C-139.7 27.5 -140.8 27.6 -142 27.7 C-143.1 27.8 -144.1 27.9 -145.1 28 C-148.2 28 -150.2 27.3 -153 26 C-152.8 25.5 -152.8 25.5 -152 23 C-149.8 22.5 -149.8 22.5 -147 22.4 C-145.9 22.4 -144.8 22.3 -143.7 22.3 C-143.1 22.3 -143.1 22.3 -140 22.2 C-139.4 22.1 -139.4 22.1 -136.3 22 C-133.6 21.9 -130.9 21.8 -128.3 21.7 C-121.9 21.4 -115.6 21.1 -109.3 20.8 C-107.2 20.7 -105.1 20.7 -103 20.6 C-91.5 20 -80 19.4 -68.5 18.6 C-67.7 18.5 -66.8 18.4 -66 18.4 C-49.9 17.2 -33.8 15.5 -17.8 13.6 C-11.8 13 -5.9 12.5 0 12 C0 8 0 4.1 0 0 Z " transform="translate(188,225)"/><path d="M0 0 C4.1 0 8.1 0.4 12.1 0.8 C12.7 0.8 12.7 0.8 15.5 1 C29 2 29 2 34 7 C34.1 9.4 34.1 9.4 33 12 C24.9 18.1 13.6 18.4 3.9 19.2 C2.6 19.3 1.4 19.4 0.1 19.6 C-3.3 19.9 -6.7 20.2 -10.2 20.4 C-12.4 20.6 -14.6 20.8 -16.8 21 C-47.9 23.6 -79 25.9 -110 28.1 C-113.8 28.4 -117.6 28.6 -121.4 28.9 C-148 30.8 -174.4 32.7 -201 32 C-201 31.3 -201 30.7 -201 30 C-197.1 28.8 -193.1 28.6 -189 28.4 C-188.6 28.4 -188.6 28.4 -186.5 28.2 C-183.7 28 -180.9 27.9 -178.1 27.7 C-176 27.6 -174 27.4 -172 27.3 C-160.2 26.5 -148.4 25.8 -136.6 25.2 C-108.6 23.7 -80.6 22.1 -52.8 19.4 C-51.7 19.3 -50.6 19.2 -49.6 19.1 C-39.8 18.2 -30.1 17.2 -20.5 15.6 C-19.2 15.4 -17.8 15.2 -16.5 15 C-10.6 13.3 -6.9 10.5 -3.7 5.3 C-3.2 4.5 -2.7 3.7 -2.2 2.9 C-1.8 2.3 -1.4 1.7 -1 1 C-0.7 0.7 -0.3 0.3 0 0 Z " transform="translate(236,235)"/><path d="M0 0 C3.9 -0.6 6.3 -0.3 10 1.1 C12 3 12 3 12.2 5.9 C10.6 10 8.8 10.9 5 13 C-5.3 16.4 -16.3 17.5 -27 18.9 C-27.6 19 -28.3 19 -29 19.1 C-47.7 21.4 -66.4 23.1 -85.2 24.7 C-88.1 25 -91 25.3 -94 25.5 C-125.6 28.3 -157.3 31 -189 33 C-189.8 33.1 -190.7 33.1 -191.6 33.2 C-202.1 33.8 -212.6 34.1 -223.2 34.1 C-224.4 34.1 -225.7 34.1 -227 34 C-230 34 -233 34 -236 34 C-236 33.3 -236 32.7 -236 32 C-232.4 30.9 -229 30.7 -225.3 30.5 C-224.6 30.5 -223.9 30.5 -223.2 30.4 C-221.7 30.3 -220.2 30.3 -218.8 30.2 C-215.5 30 -212.2 29.8 -209 29.6 C-206.3 29.5 -203.6 29.3 -200.9 29.2 C-168.2 27.4 -135.5 25.2 -102.9 22.7 C-100 22.4 -97.2 22.2 -94.4 22 C-76.4 20.6 -58.4 19.2 -40.5 17.3 C-39 17.1 -37.5 17 -36 16.8 C-10.5 14.3 -10.5 14.3 -3 6 C-2.5 4.9 -2.1 3.8 -1.6 2.7 C-1 1.8 -0.5 0.9 0 0 Z " transform="translate(277,246)"/><path d="M0 0 C8.5 0.2 8.5 0.2 12 3.5 C12.8 5.8 12.8 5.8 12 8.5 C5.5 17.6 -8.9 18.7 -19.3 20.4 C-21.6 20.8 -23.8 21.1 -26.1 21.5 C-26.9 21.6 -27.7 21.7 -28.5 21.9 C-45.6 24.6 -62.8 26.6 -80.1 28.5 C-82.6 28.8 -85.1 29 -87.6 29.3 C-99.7 30.6 -111.8 31.9 -123.9 33.2 C-127.1 33.5 -130.3 33.8 -133.4 34.2 C-147 35.6 -160.5 37 -174 38.4 C-178.4 38.8 -182.7 39.3 -187.1 39.7 C-192.4 40.3 -197.6 40.8 -202.8 41.3 C-204.7 41.5 -206.6 41.7 -208.5 41.9 C-245.4 45.8 -245.4 45.8 -252 42.5 C-252 41.5 -252 40.5 -252 39.5 C-243.2 37.2 -234.3 36.6 -225.3 35.8 C-223.5 35.6 -221.7 35.5 -220 35.3 C-216.2 35 -212.4 34.7 -208.6 34.3 C-198.6 33.5 -188.6 32.5 -178.6 31.6 C-177.6 31.6 -176.6 31.5 -175.6 31.4 C-135 27.7 -94.6 23.6 -54.2 18.8 C-53.6 18.7 -53.6 18.7 -50.6 18.4 C-11.8 13.8 -11.8 13.8 -5.2 6.6 C-4 4.5 -4 4.5 -3.2 2.4 C-2 0.5 -2 0.5 0 0 Z " transform="translate(296,257.5)"/><path d="M0 0 C2.8 1.1 4.5 2.1 7 4 C8 6.9 8 6.9 7 10 C2.4 15.2 -4.3 16.8 -10.7 18.5 C-11.6 18.7 -12.4 18.9 -13.3 19.1 C-21.7 21.3 -30.2 22.9 -38.8 24.4 C-39.7 24.6 -40.6 24.8 -41.5 24.9 C-97.2 34.9 -153.1 43.4 -209 52 C-213.7 52.7 -218.4 53.5 -223.1 54.2 C-229.5 55.2 -235.8 56.1 -242.2 57.1 C-244.5 57.5 -246.9 57.8 -249.2 58.2 C-252.5 58.7 -255.7 59.2 -259 59.7 C-259.9 59.8 -260.9 60 -261.8 60.1 C-270.1 61.4 -270.1 61.4 -274 60 C-275.3 58.5 -275.3 58.5 -276.2 56.5 C-276.6 55.8 -276.9 55.1 -277.3 54.4 C-277.6 53.7 -278 52.9 -278.3 52.2 C-278.5 51.8 -278.5 51.8 -279.4 50 C-281.2 46.2 -282 44.3 -282 40 C-276.1 37.6 -270.1 37.3 -263.8 36.7 C-262.4 36.6 -261.1 36.5 -259.8 36.3 C-255.8 36 -251.8 35.6 -247.8 35.3 C-243.7 34.9 -239.6 34.5 -235.6 34.1 C-225.9 33.3 -216.2 32.4 -206.5 31.5 C-120.7 23.8 -120.7 23.8 -89.3 20.5 C-86.7 20.3 -84.1 20 -81.6 19.7 C-68.3 18.4 -55.2 16.7 -42 14.6 C-40.8 14.4 -39.6 14.2 -38.3 14 C-22.2 11.3 -22.2 11.3 -16 8 C-14.3 5.6 -13.2 3.3 -11.9 0.8 C-9.4 -3.9 -4.1 -1.2 0 0 Z " transform="translate(331,273)"/><path d="M0 0 C4.3 0.1 6.5 0.6 10 3.2 C12 6 12 6 12.1 8.6 C10.3 12.6 7.6 13.8 3.6 15.3 C-6.3 18.6 -16.4 21.2 -26.6 23.6 C-27.3 23.8 -28 24 -28.7 24.2 C-47.1 28.6 -65.5 32.5 -84 36.4 C-87.8 37.2 -91.7 38 -95.6 38.9 C-115.3 43.1 -135.1 47.2 -154.9 51.4 C-161.4 52.7 -167.8 54.1 -174.3 55.4 C-175.1 55.6 -175.9 55.8 -176.7 55.9 C-197.9 60.4 -219.2 65 -240.3 69.9 C-241.4 70.1 -242.5 70.4 -243.6 70.6 C-246.6 71.3 -249.6 72 -252.6 72.7 C-253.5 72.9 -254.3 73.1 -255.2 73.4 C-258.8 74.2 -262.3 75.1 -265.9 76.1 C-270.4 77.4 -274.2 77.7 -278.6 76 C-282.7 72.6 -285.8 68.4 -286.3 63 C-286.2 62.3 -286.1 61.7 -286 61 C-279.7 59 -273.3 58 -266.7 57.1 C-264.1 56.7 -261.6 56.3 -259 55.9 C-257.6 55.7 -256.2 55.5 -254.9 55.3 C-247.4 54.2 -239.9 53.1 -232.4 52 C-231.6 51.8 -230.8 51.7 -230 51.6 C-180.9 44.2 -132 35.9 -83.1 27.6 C-79.8 27 -76.5 26.5 -73.2 25.9 C-68.1 25 -62.9 24.1 -57.7 23.2 C-55.8 22.9 -53.9 22.6 -52 22.3 C-17.4 16.4 -17.4 16.4 -5 11 C-3.5 8.8 -3.5 8.8 -3.1 6.4 C-2.1 2.1 -2.1 2.1 0 0 Z " transform="translate(352,285)"/><path d="M0 0 C1 0.7 2 1.3 3 2 C2.9 5 2.3 6.6 0.4 9 C-2.7 11.6 -5.9 12.8 -9.7 14.1 C-10.5 14.4 -11.3 14.7 -12.2 15 C-48 27.5 -85.2 37.2 -122.1 45.8 C-122.8 46 -123.5 46.1 -124.2 46.3 C-131.4 47.9 -138.6 49.6 -145.9 51.2 C-183.5 59.7 -183.5 59.7 -192 69.2 C-193.5 73.3 -193.9 76.7 -193 81 C-187.6 92.2 -174.9 96.9 -164 101 C-158.1 103.1 -152 104.8 -146 106.6 C-144.3 107.1 -142.5 107.6 -140.8 108.1 C-136.3 109.4 -131.8 110.7 -127.4 112.1 C-119.3 114.4 -111.3 116.8 -103.4 119.2 C-102.5 119.4 -101.6 119.7 -100.8 119.9 C-87.1 124 -73.5 128.3 -60 133 C-60 133.7 -60 134.3 -60 135 C-79 145.4 -105.9 151.9 -126.9 145.8 C-127.8 145.6 -128.6 145.4 -129.5 145.1 C-132.2 144.4 -135 143.6 -137.7 142.8 C-139.6 142.3 -141.6 141.7 -143.5 141.2 C-147.6 140 -151.7 138.9 -155.8 137.7 C-164.8 135.2 -173.8 132.7 -182.8 130.2 C-185.7 129.4 -188.6 128.6 -191.6 127.8 C-204.9 124.1 -218.3 120.5 -231.7 116.9 C-232.5 116.6 -233.4 116.4 -234.3 116.2 C-236.7 115.5 -239.1 114.9 -241.5 114.2 C-241.9 114.1 -241.9 114.1 -243.8 113.6 C-248.1 112.5 -252.4 111.4 -256.8 110.4 C-261.2 109.3 -264.3 108 -267.9 105.1 C-268.9 104.3 -269.8 103.5 -270.9 102.7 C-271.4 102.2 -271.9 101.8 -272.4 101.4 C-274.1 99.9 -275.8 98.5 -277.6 97.1 C-291.8 85.4 -291.8 85.4 -296 78 C-295 75 -295 75 -292.5 73.5 C-288.5 71.8 -284.7 70.8 -280.6 69.8 C-279.7 69.6 -278.8 69.4 -277.9 69.2 C-275 68.4 -272 67.8 -269 67.1 C-267.9 66.8 -266.9 66.6 -265.7 66.3 C-226.4 57.1 -186.8 49 -147.2 40.7 C-141.8 39.5 -136.3 38.4 -130.9 37.2 C-113.1 33.5 -95.4 29.8 -77.6 26 C-73 25.1 -68.4 24.1 -63.8 23.1 C-62.1 22.8 -60.4 22.4 -58.7 22 C-57.8 21.9 -57 21.7 -56.2 21.5 C-51.6 20.5 -47 19.6 -42.5 18.7 C-40.5 18.3 -38.5 17.9 -36.5 17.5 C-34.2 17 -31.9 16.6 -29.6 16.1 C-23 14.8 -16.5 13 -11 9 C-9.5 6.6 -8.6 4.5 -7.7 1.9 C-6.2 -2 -3.4 -0.9 0 0 Z " transform="translate(381,297)"/><path d="M0 0 C1.8 0.1 1.8 0.1 4 0.4 C4.4 0.4 4.4 0.4 6.2 0.6 C8 1 8 1 9 2 C9 4.3 9 6.7 9 9 C4.5 10.5 1.5 9.3 -3 8 C-1.1 1.1 -1.1 1.1 0 0 Z " transform="translate(389,304)"/><path d="M0 0 C1.2 2.3 2.2 4.5 3 7 C-1.4 9.8 -5.9 11.8 -10.6 13.9 C-12.4 14.7 -14.1 15.5 -15.8 16.2 C-18.5 17.4 -21.2 18.6 -23.9 19.8 C-33.2 23.9 -42.4 28 -51.4 32.6 C-51.8 32.8 -51.8 32.8 -53.5 33.7 C-58.3 36.2 -62.1 39.4 -65 44 C-66 47.8 -65.8 50.5 -63.9 54.1 C-62.4 56.2 -60.8 58.1 -59 60 C-58.5 60.5 -58.1 61 -57.6 61.6 C-47.7 71.4 -31.2 74.6 -18.1 77.8 C-15.8 78.4 -13.5 79 -11.2 79.5 C-9.8 79.9 -8.4 80.2 -7 80.6 C-2.2 81.8 -2.2 81.8 0 84 C-12.9 95.3 -31.7 110.5 -49.8 110.3 C-55 109.6 -59.9 107.7 -64.8 106.1 C-67.4 105.3 -70.1 104.4 -72.7 103.6 C-73.3 103.4 -74 103.2 -74.7 103 C-82.3 100.6 -90 98.4 -97.7 96.2 C-99.1 95.8 -100.5 95.4 -102 95 C-107.7 93.3 -113.4 91.7 -119.2 90.1 C-169.9 75.7 -169.9 75.7 -178.9 64.7 C-180.5 60.8 -180.4 59 -179 55 C-172.7 49.1 -164.7 47 -156.6 44.7 C-155.3 44.3 -154 43.9 -152.7 43.5 C-138.5 39.4 -124.1 35.8 -109.8 32.2 C-102.1 30.3 -94.4 28.3 -86.7 26.3 C-86 26.1 -85.2 25.9 -84.5 25.7 C-16.7 8.4 -16.7 8.4 0 0 Z " transform="translate(375,317)"/><path d="M0 0 C0.3 0.7 0.7 1.3 1 2 C-1.5 7.8 -4.8 13.3 -9 18 C-10 14.2 -10.6 10.9 -10 7 C-7.1 3.9 -3.8 1.9 0 0 Z " transform="translate(429,334)"/><path d="M0 0 C-0 0.7 -0 1.4 -0.1 2 C-0.1 2.9 -0.1 3.8 -0.1 4.8 C-0.1 5.6 -0.2 6.5 -0.2 7.4 C0 10.2 0.5 11.7 2 14 C7.3 15 9.7 12.9 14 10 C16.3 10 16.3 10 18 11 C18.9 12.8 18.9 12.8 19 15 C18.8 15.4 18.8 15.4 18.1 17.3 C16.7 20.9 16.5 23.2 17 27 C18.3 29.1 19.7 31 21.3 32.9 C21.5 33.6 21.8 34.3 22 35 C19.5 39.7 16 43.3 12.2 46.9 C11.7 47.5 11.2 48 10.7 48.5 C6.6 52.5 2.4 56.3 -2 60 C-2.3 60.3 -2.7 60.7 -3 61 C-10.5 60.6 -17.5 58.7 -24.8 56.8 C-26.7 56.3 -28.7 55.7 -30.6 55.2 C-55.9 48.5 -55.9 48.5 -63 41 C-64.7 37.9 -64.7 37.9 -65 35 C-61.9 26.1 -49.7 21.2 -41.8 17.3 C-34.2 13.8 -26.5 10.6 -18.8 7.5 C-18.1 7.2 -17.5 6.9 -16.8 6.7 C-14.9 5.9 -13.1 5.2 -11.3 4.4 C-9.1 3.5 -6.9 2.4 -4.7 1.3 C-2 0 -2 0 0 0 Z " transform="translate(383,336)"/><path d="M0 0 C0 3.6 -1.2 5 -3.6 7.7 C-5.6 9.5 -7.4 9.8 -10 10 C-9.2 3.2 -9.2 3.2 -7 1 C-4.7 0.6 -2.3 0.3 0 0 Z " transform="translate(417,354)"/><path d="M0 0 C6.5 0.6 12.4 1.7 18.6 3.5 C20.5 4 22.4 4.6 24.3 5.1 C25.3 5.4 26.3 5.7 27.3 5.9 C46.5 11.3 65.7 16.2 85 20.8 C85.6 20.9 85.6 20.9 88.4 21.6 C94.6 23.1 100.8 24.5 107 26 C107 26.7 107 27.3 107 28 C74.9 33.8 39.9 21.2 11.3 7.7 C10.2 7.2 9.1 6.6 7.9 6.1 C6.9 5.6 5.9 5.1 4.8 4.6 C4.3 4.4 4.3 4.4 2 3.2 C1.3 2.8 0.7 2.4 0 2 C0 1.3 0 0.7 0 0 Z " transform="translate(138,417)"/></g><g fill="#dbb989"><path d="M0 0 C-2.3 5.5 -6.8 7.5 -12 10 C-14.8 11.1 -17.6 12 -20.4 12.9 C-21.1 13.2 -21.8 13.4 -22.5 13.6 C-26.3 14.8 -28 15 -32 14 C-28.7 12 -25.4 10 -22 8 C-23.4 8.5 -24.8 8.9 -26.2 9.4 C-29.1 10.4 -32 11.3 -35 12 C-30.7 5.6 -23.9 0.8 -16.3 -0.8 C-4.1 -2 -4.1 -2 0 0 Z " transform="translate(305,2)"/><path d="M0 0 C1.2 -0 2.4 -0 3.7 -0 C6.3 0.1 8.5 0.3 11 1.1 C9.2 5.8 6.3 6.9 1.9 9 C-6.3 12.3 -14.2 13.7 -23 13.1 C-19.2 10.1 -15.6 8.7 -11 7.1 C-14.6 7.5 -18.3 7.8 -22 8.1 C-19.5 5.6 -18.1 4.5 -15.1 3 C-14.4 2.7 -13.7 2.3 -13 2 C-8.6 0.1 -4.8 -0 0 0 Z " transform="translate(320,8.9)"/><path d="M0 0 C0.7 0.7 1.3 1.3 2 2 C1.8 4.1 1.8 4.1 1 6 C-9.5 9.5 -22.7 7.1 -33 4 C-28.9 1.3 -25.8 1.4 -21 1 C-22.5 0.7 -22.5 0.7 -30 -1 C-21.2 -6.8 -8.8 -4.8 0 0 Z " transform="translate(352,27)"/><path d="M0 0 C1 0.3 2 0.7 3 1 C2.7 2 2.3 3 2 4 C3.2 4.1 4.5 4.2 5.8 4.3 C11.6 5 17.2 6.5 22.8 8.1 C23.9 8.4 25 8.7 26.1 9 C41.5 13.5 56 19.6 70.1 27 C72 28 73.8 28.9 75.7 29.8 C85.6 34.6 93.7 41.1 102 48.3 C104.4 50.4 106.9 52.5 109.4 54.5 C111 55.9 112.6 57.3 114.2 58.6 C115.9 60.1 117.6 61.5 119.4 62.9 C122.8 65.7 125.5 68.4 127.9 72.2 C128.4 73 128.9 73.8 129.4 74.6 C129.9 75.4 130.5 76.2 131 77 C131.9 78.4 132.9 79.8 133.9 81.2 C140.9 91.5 147.2 102 153 113 C153.2 113.3 153.2 113.3 154.1 115.1 C159.3 124.8 163.2 134.4 166 145 C166.2 145.8 166.4 146.5 166.6 147.3 C167.2 149.6 167.8 152 168.4 154.3 C168.6 155 168.7 155.8 168.9 156.5 C169.7 159.8 170.1 161.7 169 165 C168.7 164.3 168.5 163.6 168.2 162.8 C152.5 120.5 152.5 120.5 137.9 104.2 C135.9 101.9 134.5 99.5 132.9 96.9 C130.4 92.5 127.4 88.9 124 85.1 C122.1 83.2 120.4 81.1 118.7 79 C114.3 74 109.2 70.1 104 66 C103.6 65.7 103.6 65.7 101.8 64.2 C72.7 40.5 36.4 23 -1 18 C-1.3 19 -1.7 20 -2 21 C-2.3 20.5 -2.3 20.5 -4 18 C-44 5.9 -96 27.1 -130.6 45.3 C-140.8 50.9 -150.2 57.3 -159 65 C-159 65.3 -159 65.7 -159 66 C-158.5 65.8 -158 65.5 -157.5 65.3 C-136.4 54.9 -117.2 48.6 -93.4 48.5 C-91.5 48.5 -89.5 48.4 -87.6 48.4 C-86.4 48.4 -85.3 48.4 -84.1 48.4 C-79.2 47.8 -76.2 45.3 -72.7 42 C-68.1 38 -63.6 36.1 -57.5 35.8 C-56.7 35.9 -55.8 35.9 -55 36 C-54.7 37 -54.3 38 -54 39 C-56.9 42.8 -60.2 44.1 -64.6 45.7 C-65.7 46.1 -66.8 46.5 -68 46.9 C-70 47.6 -72 48.3 -74 49 C-68.9 50.5 -63.7 51.9 -58.6 53.1 C-57.9 53.3 -57.1 53.5 -56.4 53.7 C-49.8 55.3 -43.7 56 -37.3 53.4 C-31.3 51.4 -25 51.8 -19 54 C-17.9 55.9 -17.9 55.9 -18 58 C-19.5 60 -20.4 60.9 -22.9 61.3 C-23.6 61.3 -24.3 61.3 -25 61.3 C-25.8 61.3 -26.5 61.3 -27.3 61.3 C-28.1 61.2 -28.9 61.2 -29.7 61.2 C-30.1 61.2 -30.1 61.2 -32.1 61.1 C-34.1 61.1 -36 61.1 -38 61 C-37.4 61.2 -36.8 61.4 -36.2 61.6 C-30.2 63.8 -25.3 66.6 -20.2 70.4 C-17.2 72.5 -14.5 73.8 -11 75 C-10.7 76 -10.3 77 -10 78 C-8.1 79.3 -8.1 79.3 -5.8 80.7 C-1.7 83.3 0.8 85.9 3.5 89.9 C5.1 92.2 6.9 94.1 8.9 96.2 C13.8 101.6 17.3 107.7 21 114 C25.8 121.8 25.8 121.8 27 123 C28.7 123.3 30.5 123.5 32.2 123.8 C37.4 124.6 39.8 125.8 43 130 C43.7 130.8 44.5 131.7 45.2 132.5 C47.1 135.1 47.6 136.9 48 140 C42.7 138.6 39.3 136.2 35.1 132.9 C34.5 132.4 33.9 131.9 33.3 131.5 C31.9 130.3 30.4 129.2 29 128 C29.3 128.8 29.5 129.5 29.8 130.3 C35.5 147.1 35.5 147.1 34 152 C33.5 150.8 33.1 149.6 32.6 148.4 C26.5 133 18.8 119.6 8 107 C7.1 105.9 6.2 104.7 5.2 103.6 C4.3 102.4 3.3 101.2 2.3 100.1 C1.9 99.5 1.4 98.9 0.9 98.4 C-1.7 95.2 -4.3 92.9 -8 91 C-7.9 92.8 -7.7 94.5 -7.6 96.2 C-7.5 97.2 -7.4 98.2 -7.3 99.2 C-7 102 -7 102 -6.5 104.1 C-5.7 107.4 -5.9 110.6 -6 114 C-10.6 112.2 -12.9 109 -15.2 104.8 C-16.7 99.5 -16.4 94 -15.2 88.6 C-15 86 -15 86 -16.4 83.9 C-19.8 81.4 -23.4 79.2 -27 77 C-26.8 77.2 -26.8 77.2 -25.8 78.2 C-18.7 85.8 -17.6 93.8 -17 104 C-22.1 101.6 -25.7 98.5 -27.7 93.1 C-28.6 90.1 -29.5 87.1 -30.3 84.1 C-31.3 80 -32.5 76.6 -35 73 C-36 73.3 -37 73.7 -38 74 C-37.7 74.7 -37.3 75.5 -36.9 76.2 C-33.8 83.3 -32.2 89.3 -32 97 C-33 97 -34 97 -35 97 C-40.5 91.2 -41.4 82.3 -42.3 74.6 C-42.6 72.8 -42.6 72.8 -44 70 C-46.4 68.9 -48.8 68.3 -51.4 67.7 C-53.8 67 -55.4 66.3 -57.4 64.9 C-61.9 62.2 -66.9 61.7 -72 61 C-71.5 61.7 -71 62.4 -70.4 63.1 C-59 78.3 -59 78.3 -59 85 C-63 84.4 -65.1 82.8 -68 80 C-71.2 75.5 -73.8 71.7 -74.4 66.1 C-74.6 65.1 -74.8 64 -75 63 C-81.5 59.7 -87.5 59.5 -94.8 59.6 C-95.8 59.6 -96.9 59.6 -98.1 59.6 C-131.1 60.2 -161.4 75.4 -185 98 C-185.9 98.8 -186.7 99.7 -187.6 100.5 C-188.4 101.3 -189.2 102.2 -190 103 C-190.6 103.6 -191.1 104.1 -191.7 104.7 C-205.7 119.4 -214.7 139.3 -222 158 C-223.6 154 -222.3 151.1 -221 147.1 C-220.8 146.5 -220.6 145.8 -220.3 145.1 C-219.6 142.9 -218.9 140.7 -218.1 138.6 C-217.9 137.8 -217.6 137.1 -217.4 136.3 C-201.1 88.3 -201.1 88.3 -187.2 77.8 C-184.2 75.4 -181.7 72.6 -179.2 69.8 C-161.5 50.4 -142.2 35.1 -119 23 C-118.7 22.8 -118.7 22.8 -117 21.9 C-92.7 9.1 -63.9 2.1 -36.4 1.7 C-34.4 1.7 -32.4 1.6 -30.4 1.6 C-27.2 1.6 -24.1 1.5 -20.9 1.4 C-17.9 1.4 -14.8 1.3 -11.8 1.3 C-10.8 1.3 -9.9 1.3 -8.9 1.2 C-8.4 1.2 -8.4 1.2 -6.2 1.2 C-5.8 1.2 -5.8 1.2 -3.9 1.2 C-2 1 -2 1 0 0 Z M-179 75 C-187.9 85.2 -197.1 96.8 -203 109 C-202.7 109.7 -202.3 110.3 -202 111 C-201.4 110.1 -200.8 109.2 -200.2 108.2 C-172.6 65.9 -134.3 35.6 -86 20 C-85.3 19.8 -84.6 19.6 -83.9 19.3 C-34 3.1 20.1 10.7 66.3 34.2 C103.8 53.7 133.8 84.4 153 122 C154 119 154 119 152.3 115.4 C151.5 113.9 150.7 112.4 149.8 110.9 C149.4 110.1 148.9 109.3 148.4 108.5 C135.3 85.7 117.9 65 97 49 C96 48.2 94.9 47.4 93.8 46.6 C84.7 39.8 75.1 34.2 65 29 C64.3 28.6 63.7 28.3 63 27.9 C-18.6 -14.7 -118 8.2 -179 75 Z M-122 55 C-122.3 55.1 -122.3 55.1 -124.1 55.5 C-149.8 61.7 -177.5 77 -193 99 C-192.7 99.7 -192.3 100.3 -192 101 C-191.6 100.5 -191.1 99.9 -190.6 99.3 C-185.3 93.1 -179.5 88 -173 83 C-172.6 82.7 -172.6 82.7 -170.4 80.9 C-162.8 75.1 -154.7 70.9 -146 67 C-145.4 66.7 -144.8 66.4 -144.1 66.1 C-134 61.6 -123.8 59 -113 57 C-111.9 56.8 -110.9 56.6 -109.8 56.4 C-73.6 52.5 -38.4 62.1 -9.8 84.8 C-4 89.6 1.3 95 6.5 100.5 C8.7 102.7 10.8 104.8 13 107 C2.3 83.4 -26.5 68.1 -49.2 59.1 C-72.4 50.5 -98 49.4 -122 55 Z M13 107 C13.3 108 13.7 109 14 110 C14 109 14 108 14 107 C13.7 107 13.3 107 13 107 Z M15 110 C15.3 111 15.7 112 16 113 C16 112 16 111 16 110 C15.7 110 15.3 110 15 110 Z M-204 111 C-205.6 113.4 -205.6 113.4 -207 116 C-206.7 116.7 -206.3 117.3 -206 118 C-204.4 115.6 -204.4 115.6 -203 113 C-203.3 112.3 -203.7 111.7 -204 111 Z M18 114 C19 116 19 116 19 116 Z M19 116 C20 118 20 118 20 118 Z M-208 118 C-208.3 119.3 -208.7 120.6 -209 122 C-208.3 121.7 -207.7 121.3 -207 121 C-207.3 120 -207.7 119 -208 118 Z M22 121 C23 123 23 123 23 123 Z M-210 122 C-209 124 -209 124 -209 124 Z M154 122 C155 124 155 124 155 124 Z M23 123 C24 125 24 125 24 125 Z M155 124 C156 126 156 126 156 126 Z M24 125 C25 127 25 127 25 127 Z M156 126 C157 128 157 128 157 128 Z M-212 127 C-211 129 -211 129 -211 129 Z M-213 129 C-212 131 -212 131 -212 131 Z M-214 131 C-213 133 -213 133 -213 133 Z M158 131 C159 133 159 133 159 133 Z M159 133 C160 135 160 135 160 135 Z M161 138 C162 140 162 140 162 140 Z " transform="translate(266,16)"/><path d="M0 0 C4.6 3.5 7.6 6.9 10.6 11.8 C11 12.4 11.4 13 11.8 13.6 C15.8 20.1 19.2 26.3 20 34 C13.2 33 9.3 28.8 5 23.6 C0.5 17.4 -3.7 11 -3 3 C-1.4 5.4 0.1 7.8 1.6 10.2 C2.1 10.9 2.5 11.6 3 12.4 C3.3 12.9 3.7 13.4 4 14 C3.7 13.2 3.4 12.5 3.1 11.7 C2.8 10.7 2.4 9.7 2 8.7 C1.8 8.2 1.8 8.2 0.9 5.7 C0 3 0 3 0 0 Z " transform="translate(269,39)"/><path d="M0 0 C5.1 2.2 9.7 5.9 13.4 10.1 C13.4 10.7 13.4 11.4 13.4 12.1 C1.6 12.9 -10.3 10.1 -20.6 4.1 C-20.6 3.7 -20.6 3.4 -20.6 3.1 C-16.3 3.4 -12 3.7 -7.6 4.1 C-11.9 2.7 -16.2 1.4 -20.6 0.1 C-13.7 -3.4 -7.2 -2.4 0 0 Z " transform="translate(367.6,40.9)"/><path d="M0 0 C0.7 0 1.3 0 2 0 C3.1 2.2 3.1 2.2 4.1 5 C4.5 5.9 4.8 6.9 5.2 7.8 C5.3 8.2 5.3 8.2 6 10 C6 6.5 5.6 3.4 5 0 C15.6 7.2 21.2 21.4 26 33 C26 33.7 26 34.3 26 35 C21.2 34.6 18.5 32.3 15.1 29.2 C14.6 28.7 14.1 28.2 13.5 27.7 C6.7 21.1 0.3 11.9 -0.1 2.1 C-0.1 1.4 -0 0.7 0 0 Z M8 12 C9 14 9 14 9 14 Z " transform="translate(287,45)"/><path d="M0 0 C3.3 3.3 4.3 7.7 6 12 C5.7 8.4 5.3 4.7 5 1 C13.7 8 16.2 20.5 18 31 C18 32.3 18 33.6 18 35 C8.8 30.8 4.9 20.8 1 12 C-0.3 8 -0.1 4.2 0 0 Z M7 13 C8 15 8 15 8 15 Z " transform="translate(314,55)"/><path d="M0 0 C0 0.7 0 1.3 0 2 C-5.4 5.6 -11.6 6.5 -18 7 C-21.8 6.1 -21.8 6.1 -24 5 C-24 4.3 -24 3.7 -24 3 C-7.4 -3.7 -7.4 -3.7 0 0 Z " transform="translate(233,60)"/><path d="M0 0 C12.9 0 22.1 3.9 31.7 12.5 C33 14 33 14 33 16 C20.2 16.9 8.6 11.8 -2 5 C-2.3 4.3 -2.7 3.7 -3 3 C1.9 4 6.9 5 12 6 C10 5.2 8 4.4 6 3.6 C4 2.7 2 1.9 0 1 C0 0.7 0 0.3 0 0 Z " transform="translate(374,58)"/><path d="M0 0 C7.6 6.8 10.2 18.2 12 28 C12 29.3 12 30.6 12 32 C7.5 31.5 5.1 30.3 2 27 C-2 19.1 -3.2 11.8 -3 3 C-1 6 -1 6 1 11 C0.7 7.4 0.3 3.7 0 0 Z M2 12 C3 14 3 14 3 14 Z " transform="translate(339,68)"/><path d="M0 0 C4.4 2.6 7.6 6.3 10.5 10.5 C10.5 11.1 10.5 11.8 10.5 12.5 C11.4 12.7 12.3 12.9 13.2 13.2 C16.9 14.7 18.8 16.5 21.5 19.5 C20.5 20.5 20.5 20.5 18.5 20.5 C10.8 19.9 4 17.8 -2.5 13.5 C-2.5 12.2 -2.5 10.8 -2.5 9.5 C-3.2 9.2 -4 9 -4.7 8.7 C-10.2 6.8 -14.9 5 -19.5 1.5 C-19.2 0.5 -18.9 -0.5 -18.5 -1.5 C-11.9 -3.7 -6.2 -2.7 0 0 Z " transform="translate(259.5,80.5)"/><path d="M0 0 C4.7 1.1 6.9 3.7 9.6 7.5 C12.3 12.3 15 18.4 15 24 C9.7 22.6 6.9 19.4 4 15 C1.5 10 -0.3 5.7 0 0 Z " transform="translate(207,82)"/><path d="M0 0 C9 9 12 22.4 12 35 C5.6 32.2 1.7 26.4 -1.2 20.2 C-3.3 14.6 -4.1 8.9 -4 3 C-3.3 3 -2.7 3 -2 3 C-0.7 6.6 0.6 10.3 2 14 C1.3 9.4 0.7 4.8 0 0 Z " transform="translate(362,82)"/><path d="M0 0 C10.2 0.7 17.1 5.6 24 13 C25.4 15.4 26.2 17.4 27 20 C21.7 21.8 16.8 18.4 12 16 C5.4 12.3 -0.4 8.1 -6 3 C-2.3 1.8 -1.3 2.4 2.2 3.9 C3.1 4.3 4 4.7 4.9 5.1 C5.6 5.4 6.3 5.7 7 6 C6.2 5.4 5.4 4.8 4.6 4.1 C2 2 2 2 0 0 Z " transform="translate(404,85)"/><path d="M0 0 C4.9 7.3 4.1 20.4 2.4 28.9 C1.7 31 1.7 31 0 34 C-0.5 34.2 -0.5 34.2 -3 35 C-7.9 23.2 -9.2 14.2 -5 2 C-4.7 2 -4.3 2 -4 2 C-3.7 4.6 -3.3 7.3 -3 10 C-2.7 8.9 -2.4 7.8 -2.1 6.7 C-1.4 4.4 -0.7 2.2 0 0 Z " transform="translate(387,108)"/><path d="M0 0 C5.4 0.2 9.8 2.1 14 5.4 C16.1 8.6 17.7 11.8 19.3 15.3 C21.3 19 23.5 21.4 26.7 24.1 C28 25.4 28 25.4 28 28.4 C21.2 26.6 14.4 24.1 9 19.4 C8.2 16.7 8.2 16.7 8 14.4 C8.7 14.1 9.3 13.8 10 13.4 C9.4 13.1 8.8 12.7 8.2 12.3 C3.6 9.2 -0.8 6.1 -5 2.4 C-3 0.4 -3 0.4 0 0 Z " transform="translate(280,108.6)"/><path d="M0 0 C8.2 -0.7 13.2 0.9 19.6 6.1 C27.3 12.9 27.3 12.9 30 17 C30 17.7 30 18.3 30 19 C22.8 18.5 16.6 15.7 10 13 C9.2 12.7 8.4 12.3 7.6 12 C2.7 9.8 0.1 7.3 -3 3 C1.3 4 5.6 5 10 6 C8.4 5.2 6.7 4.4 5 3.6 C3.3 2.7 1.6 1.9 0 1 C0 0.7 0 0.3 0 0 Z " transform="translate(419,109)"/><path d="M0 0 C1 0.7 2 1.3 3 2 C3.6 5.3 3.6 5.3 3.8 9.2 C3.9 10.6 4 11.9 4.1 13.2 C4 16.9 3.4 19.6 2 23 C-2.2 19 -4.1 16.5 -4.3 10.7 C-4.3 5.9 -3 3.6 0 0 Z " transform="translate(268,126)"/><path d="M0 0 C0.3 0 0.7 0 1 0 C1.3 4.3 1.7 8.6 2 13 C2.7 9.4 3.3 5.7 4 2 C8.6 6.6 7.2 14.5 7.2 20.6 C7.2 21.6 7.2 22.6 7.2 23.7 C7.2 24.2 7.2 24.2 7.2 26.8 C7.2 27.7 7.2 28.6 7.2 29.5 C7 32.1 6.3 33.8 5 36 C2 35 2 35 0.4 32.2 C-2.1 26.5 -2.2 21.7 -2.2 15.6 C-2.2 14.8 -2.2 13.9 -2.2 13.1 C-2.2 8.3 -1.8 4.5 0 0 Z " transform="translate(398,127)"/><path d="M0 0 C9.8 2.6 16.4 7 21.8 15.6 C23.7 19.3 24.3 22.9 25 27 C16.1 23.4 9.8 17.6 3 11 C2.2 10.3 1.5 9.5 0.7 8.7 C-0.9 7.2 -2.4 5.6 -4 4 C-3.3 3.7 -2.7 3.3 -2 3 C0.4 4 0.4 4 3.1 5.4 C4 5.9 4.9 6.4 5.9 6.9 C6.6 7.2 7.3 7.6 8 8 C7.2 7.2 6.5 6.5 5.7 5.7 C3.8 3.8 1.9 1.9 0 0 Z " transform="translate(431,132)"/><path d="M0 0 C1 0.7 2 1.3 3 2 C3.4 5 3.4 5 3.3 8.8 C3.3 10 3.3 11.2 3.3 12.4 C3 15.9 2.3 18.7 1 22 C-0.6 21.7 -2.3 21.3 -4 21 C-4.6 13.4 -2.4 7.1 0 0 Z " transform="translate(278,138)"/><path d="M0 0 C0.7 0 1.3 0 2 0 C5.3 9.9 3.9 16.5 0 26 C-4.5 20.3 -4.6 15.1 -4 8 C-3.2 5.1 -2.2 2.2 0 0 Z " transform="translate(289,152)"/><path d="M0 0 C1.1 3.2 1.1 5.7 1 9 C2 6.4 3 3.7 4 1 C7.9 6.9 6.4 15.1 5.4 21.9 C4.3 27.5 3.2 32.1 0 37 C-4.4 32.4 -4.9 26.2 -5.2 20.1 C-5 12.9 -3.6 6.2 0 0 Z " transform="translate(414,152)"/><path d="M0 0 C4.8 0.5 8.3 0.9 12 4 C17 11.4 17 11.4 17 16 C11 15.2 7.4 12 3 8 C0.7 4.9 0 3.8 0 0 Z " transform="translate(304,160)"/><path d="M0 0 C7.9 0.7 13 5.7 17.8 11.5 C23.2 18.2 23.2 18.2 25 22 C24.7 24.3 24.7 24.3 24 26 C17 24.1 12.9 20.5 7.6 15.5 C5.5 13.4 3.3 11.6 0.9 9.7 C-1.9 7.1 -3 5.6 -4 2 C-2.6 2.8 -1.2 3.5 0.2 4.3 C1 4.7 1.8 5.2 2.6 5.6 C4.9 6.9 6.9 8.4 9 10 C7.9 8.7 6.8 7.4 5.6 6.1 C5 5.4 4.4 4.7 3.7 3.9 C2.5 2.6 1.3 1.3 0 0 Z " transform="translate(443,164)"/><path d="M0 0 C0.3 0 0.7 0 1 0 C1.6 7.9 0.8 16.5 -4.5 22.8 C-6 24 -6 24 -8 24 C-8.4 15.9 -7.6 8.9 -2.4 2.4 C-2 2 -2 2 0 0 Z " transform="translate(297,167)"/><path d="M0 0 C4.3 3.3 7.3 5.7 9 11 C9.7 21.5 9.7 21.5 8 25 C7 25 6 25 5 25 C2.3 20.8 1.4 16.9 0.8 11.9 C0.7 10.8 0.5 9.6 0.3 8.3 C0.1 5.5 -0.1 2.8 0 0 Z " transform="translate(308,177)"/><path d="M0 0 C1 3.7 1.1 7.1 1 11 C2 7.7 3 4.4 4 1 C4.3 1 4.7 1 5 1 C5.7 12.9 4.2 24.3 -3 34 C-4 33.7 -5 33.3 -6 33 C-9.5 25.9 -6.2 16 -4 9 C-2.8 5.9 -1.5 3 0 0 Z " transform="translate(424,179)"/><path d="M0 0 C5 1.2 7.3 2.6 10 7 C13.4 15.9 14.9 25.5 14 35 C13.3 35.7 12.7 36.3 12 37 C5.3 27.9 -1.7 15.7 -1 4 C1.6 6.5 3.9 9.1 6 12 C5.7 11.3 5.3 10.6 4.9 9.9 C3.3 6.6 1.6 3.3 0 0 Z " transform="translate(447,184)"/><path d="M0 0 C-0.4 7.2 -2.4 13.7 -6 20 C-8.7 22.4 -8.7 22.4 -11 24 C-11.6 16.9 -9.8 9.7 -5.4 4 C-1.5 0 -1.5 0 0 0 Z " transform="translate(302,186)"/><path d="M0 0 C4.2 1.7 5.3 3.7 7.2 7.7 C9.5 14.2 9.3 19.6 7 26 C6 25.7 5 25.3 4 25 C0.3 16.7 -0.2 8.9 0 0 Z " transform="translate(306,195)"/><path d="M0 0 C1.4 2.9 0.6 4.9 0 8 C0.5 7 0.9 6 1.4 5 C2 4 2.5 3 3 2 C3.3 2 3.7 2 4 2 C4.9 12.2 0.5 23.5 -5 32 C-6 32.7 -7 33.3 -8 34 C-10.5 24.8 -9.1 14.5 -4.5 6.2 C-3 4.1 -1.6 2 0 0 Z " transform="translate(432,201)"/><path d="M0 0 C2 1 2 1 3.1 3.9 C3.4 5.1 3.8 6.3 4.1 7.6 C4.5 8.8 4.8 10 5.2 11.2 C5.5 12.1 5.7 13 6 14 C6 10.4 6 6.7 6 3 C10.7 7.7 12.1 11.8 12.4 18.3 C12.4 20.2 12.3 22.1 12.3 24.1 C12.3 25 12.3 26 12.3 27 C12.3 32 12 36.3 10 41 C2.9 34.6 0.9 24.2 0 15 C-0.2 10 -0.1 5 0 0 Z " transform="translate(442,210)"/></g><g fill="#868786"><path d="M0 0 C2.8 0.9 2.8 0.9 4.5 4.1 C4.7 4.7 4.9 5.3 5.2 6 C6 8.5 7.4 10.6 8.8 12.9 C7.8 13.9 6.8 14.9 5.8 15.9 C6.6 16.6 7.5 17.4 8.3 18.1 C10.8 20.9 10.8 20.9 10.8 24.9 C9.8 24.9 8.8 24.9 7.8 24.9 C8.6 26 8.6 26 12.8 31.9 C12.2 32.2 12.2 32.2 8.8 33.9 C8.9 36.1 8.9 36.1 9.8 38.9 C12 40.8 14.3 42.4 16.8 43.9 C14.2 46.4 12.3 46.4 8.8 46.9 C8.8 48.2 8.8 49.5 8.8 50.9 C11 51.9 11 51.9 13.8 52.9 C15.4 53.9 17 54.9 18.6 56 C19 56.3 19 56.3 21 57.6 C21.6 58 22.2 58.5 22.8 58.9 C19.8 60.9 18.6 61.2 15.1 61.5 C14.3 61.6 13.5 61.6 12.7 61.7 C12.1 61.8 11.4 61.8 10.8 61.9 C11 64.2 11 64.2 11.8 66.9 C14.1 68.4 14.1 68.4 16.8 69.5 C19.6 70.7 19.6 70.7 21.8 71.9 C22.1 72.9 22.5 73.9 22.8 74.9 C20.1 75.8 18.5 76 15.6 75.9 C14.4 75.9 13.1 75.9 11.8 75.9 C12.8 82 12.8 82 15.4 84.3 C17.5 85.6 19.6 86.8 21.8 87.9 C22.6 88.3 23.3 88.7 24.1 89.1 C26 90 27.9 91 29.8 91.9 C29.7 93.8 29.7 93.8 28.8 95.9 C25.9 96.6 25.9 96.6 22.3 96.9 C18.7 97.3 18.7 97.3 15.8 97.9 C15.6 98.4 15.6 98.4 14.8 100.9 C18.5 105.8 23.8 108.3 29.1 111.2 C33.3 113.8 33.3 113.8 34.8 115.9 C34.6 116.4 34.6 116.4 33.8 118.9 C29.7 118.9 26 118.9 21.9 118.3 C18.8 117.9 18.8 117.9 16.8 118.9 C17.1 121.8 17.3 123.4 19.5 125.5 C20.2 125.9 20.9 126.4 21.6 126.8 C22.4 127.3 23.2 127.8 24.1 128.3 C28.1 130.6 32.2 132.5 36.4 134.4 C38.8 135.9 38.8 135.9 39.8 139.9 C32.6 140.2 25.3 140.5 17.8 140.9 C18.4 153.6 19 166.2 19.8 178.9 C16.8 179.9 16.8 179.9 14.2 178.8 C13.2 178.2 12.2 177.7 11.2 177.1 C7.5 175.2 4 173.5 -0.1 172.3 C-3.6 171.2 -5.8 169.8 -8.5 167.2 C-11.4 164.9 -14.8 163.5 -18.1 161.9 C-20.2 160.9 -20.2 160.9 -21.2 159.9 C-21.3 158.5 -21.3 157 -21.3 155.6 C-21.3 154.8 -21.3 153.9 -21.3 153 C-21.3 152.1 -21.3 151.2 -21.2 150.3 C-21.2 149.4 -21.2 148.5 -21.2 147.6 C-21.2 145.3 -21.2 143.1 -21.2 140.9 C-21.8 140.9 -22.4 140.8 -23 140.8 C-25.7 140.7 -28.4 140.6 -31.1 140.5 C-32.1 140.5 -33 140.4 -34 140.4 C-34.4 140.4 -34.4 140.4 -36.7 140.3 C-37.5 140.3 -38.4 140.2 -39.2 140.2 C-39.9 140.1 -40.5 140 -41.2 139.9 C-41.5 139.2 -41.8 138.6 -42.2 137.9 C-39.4 134.8 -36.7 132.9 -33 131.1 C-27.5 128.2 -23 124.8 -18.2 120.9 C-23.8 119.9 -29.4 118.9 -35.2 117.9 C-35.2 116.6 -35.2 115.2 -35.2 113.9 C-33.3 112.2 -33.3 112.2 -30.7 110.5 C-29.8 109.9 -28.9 109.3 -27.9 108.7 C-27.5 108.4 -27.5 108.4 -25.2 106.9 C-23.6 105.8 -22.1 104.7 -20.6 103.6 C-20.2 103.4 -20.2 103.4 -18.6 102.2 C-18.1 101.8 -17.7 101.3 -17.2 100.9 C-17.2 99.9 -17.2 98.9 -17.2 97.9 C-21.8 97.2 -26.4 96.6 -31.2 95.9 C-31.2 94.6 -31.2 93.2 -31.2 91.9 C-29 90.3 -29 90.3 -26.1 88.9 C-21.5 86.6 -17.8 84.5 -14.2 80.9 C-13.9 79.2 -13.5 77.6 -13.2 75.9 C-15.2 76 -15.2 76 -25.2 76.9 C-25.2 75.6 -25.2 74.2 -25.2 72.9 C-23.6 71.7 -23.6 71.7 -21.5 70.8 C-20.8 70.5 -20 70.1 -19.3 69.8 C-18.6 69.5 -17.9 69.2 -17.2 68.9 C-14.2 67.4 -14.2 67.4 -12.2 65.9 C-11.6 63.8 -11.6 63.8 -11.2 61.9 C-12 61.8 -12.7 61.8 -13.5 61.7 C-14.5 61.6 -15.5 61.5 -16.6 61.4 C-17.6 61.4 -18.6 61.3 -19.6 61.2 C-22.2 60.9 -22.2 60.9 -24.2 59.9 C-24.2 59.2 -24.2 58.6 -24.2 57.9 C-21.5 56 -18.6 54.4 -15.8 52.7 C-13.2 50.9 -12.3 49.8 -11.2 46.9 C-13.5 46.2 -15.8 45.6 -18.2 44.9 C-13.2 39.9 -13.2 39.9 -11.4 38.2 C-10.2 36.9 -10.2 36.9 -9.2 33.9 C-10.8 33.9 -12.5 33.9 -14.2 33.9 C-14.5 32.6 -14.8 31.2 -15.2 29.9 C-13.2 28.6 -11.2 27.2 -9.2 25.9 C-10.5 25.2 -11.8 24.6 -13.2 23.9 C-11.4 19 -11.4 19 -9.2 17.9 C-9.2 15.8 -9.2 15.8 -9.4 13.2 C-9.5 9.2 -9.1 7 -6.6 3.8 C-4.3 1.5 -3.2 0.9 0 0 Z " transform="translate(353.2,109.1)"/></g><g fill="#f7ecb4"><path d="M0 0 C6.4 1.9 10.9 6.1 14.2 11.8 C17.3 18.4 17.9 24.6 15.5 31.6 C14.9 32.7 14.4 33.9 13.8 35.1 C13.3 35.3 13.3 35.3 10.8 36.1 C10.7 35.4 10.6 34.7 10.4 34 C9 27.4 7.3 23.4 1.9 19.3 C-1.2 17.6 -3.7 17.6 -7.2 18.1 C-7.8 18.5 -8.5 18.8 -9.2 19.1 C-9.6 12.9 -8.8 6.4 -4.8 1.4 C-3.2 0.1 -3.2 0.1 0 0 Z " transform="translate(445.2,250.9)"/><path d="M0 0 C1.1 3.5 0.9 6.2 0.4 9.8 C-0.5 20.4 1.5 30.7 4 41 C-2.8 32.8 -3.7 21.9 -3.3 11.6 C-2.9 7.2 -2 4 0 0 Z " transform="translate(435,257)"/><path d="M0 0 C2 1.3 2 1.3 4 3.3 C4 4.6 4 5.9 4 7.3 C3.4 7.2 2.7 7.1 2.1 7 C-4 6.1 -7.7 6.1 -13 9.3 C-16 12.3 -16.5 15.1 -17 19.3 C-23.2 16.5 -28.4 14.3 -32 8.3 C-32.1 5.7 -32.1 5.7 -31 3.3 C-22.2 -5.7 -10.4 -5.6 0 0 Z " transform="translate(427,275.7)"/><path d="M0 0 C0.6 0 0.6 0 3.8 0 C4.8 0 5.8 0.1 6.8 0.1 C6.8 0.4 6.8 0.7 6.8 1.1 C5.8 1.2 4.9 1.4 3.9 1.5 C-5.7 3.3 -14.7 5.5 -23 10.8 C-23.7 11.2 -24.5 11.6 -25.2 12.1 C-25.9 11.7 -26.6 11.4 -27.2 11.1 C-18.5 4.1 -11.4 -0.1 0 0 Z " transform="translate(475.2,283.9)"/><path d="M0 0 C1.6 2.9 1.7 5 1.1 8.2 C-0.9 14.4 -5.1 20 -10.6 23.4 C-16 26.1 -20.6 27.1 -26.6 26.4 C-27.3 25.4 -27.9 24.5 -28.6 23.4 C-22.9 19.4 -22.9 19.4 -20.6 19.4 C-19.6 17.1 -19.6 17.1 -18.6 14.4 C-18.3 13.8 -18 13.1 -17.6 12.4 C-17 5.3 -17 5.3 -19.6 1.4 C-20.3 0.8 -20.9 0.1 -21.6 -0.6 C-14.3 -2.4 -6.9 -4.1 0 0 Z " transform="translate(489.6,288.6)"/><path d="M0 0 C0.3 0.1 0.3 0.1 1.5 0.8 C14 6.9 26.1 11.7 40 13 C40 13.3 40 13.7 40 14 C27.5 14.5 15.7 13 5 6 C3 4.1 1.6 2.3 0 0 Z " transform="translate(398,290)"/><path d="M0 0 C3.4 0 5.3 0.4 7.9 2.6 C8.1 2.8 8.1 2.8 9 4 C7.8 6.5 7 8 5 10 C2.8 10.2 2.8 10.2 0.4 10.1 C-0.4 10.1 -1.3 10.1 -2.1 10.1 C-2.7 10 -3.4 10 -4 10 C-4 11.6 -4 13.3 -4 15 C-4.3 15 -4.7 15 -5 15 C-5.2 8.4 -5.2 8.4 -3 5 C-2.6 4.1 -2.2 3.2 -1.8 2.2 C-1.2 1.5 -0.6 0.8 0 0 Z " transform="translate(403,301)"/><path d="M0 0 C0.8 0.2 1.5 0.4 2.3 0.6 C1.8 1.4 1.3 2.2 0.8 3 C-1.1 7.7 -1.4 11.6 -0.7 16.6 C1.2 20.1 2.2 21.3 6.1 22.4 C6.4 22.5 6.4 22.5 8.3 22.6 C6.8 26.2 4.9 28 1.8 30.3 C1 30.9 0.2 31.5 -0.6 32.1 C-4.1 34.6 -6.4 35.2 -10.7 34.6 C-15 29.3 -15.3 23.2 -14.7 16.6 C-13.3 10.2 -7.7 -1.1 0 0 Z " transform="translate(419.7,304.4)"/><path d="M0 0 C8.3 2.3 14.6 10 19 17 C19.3 18 19.7 19 20 20 C17.2 19.7 16.2 19.3 14.4 17 C13.9 16.2 13.4 15.3 12.8 14.4 C9.6 9.7 6.1 6.1 1.7 2.5 C1.2 2 0.6 1.5 0 1 C0 0.7 0 0.3 0 0 Z " transform="translate(449,306)"/><path d="M0 0 C1.9 4.9 -0.4 9 -2.3 13.6 C-6.4 21.8 -12.9 27.9 -21 32 C-21.7 31.7 -22.3 31.3 -23 31 C-22.4 30.5 -21.7 30.1 -21.1 29.6 C-10.9 22 -4 12.1 0 0 Z " transform="translate(441,307)"/><path d="M0 0 C1 0.7 2 1.3 3 2 C3 2.7 3 3.3 3 4 C2.4 4.1 1.8 4.2 1.1 4.3 C-5.5 5.4 -5.5 5.4 -8.1 8.6 C-8.4 9.4 -8.7 10.2 -9 11 C-11.9 9.9 -13.8 9.2 -16 7 C-16 4.6 -16 4.6 -15 2 C-10.2 -1.6 -5.6 -1.4 0 0 Z " transform="translate(394,314)"/><path d="M0 0 C2.3 -0.1 2.3 -0.1 5 1 C8.8 4.6 10.9 7.7 11.2 12.9 C11.2 16.7 11.2 16.7 9.5 19 C9 19.3 8.5 19.7 8 20 C7.6 18.9 7.1 17.8 6.7 16.7 C4.5 11.6 4.5 11.6 2 10 C-0.7 9.8 -0.7 9.8 -3 10 C-2.2 3.4 -2.2 3.4 0 0 Z " transform="translate(478,314)"/><path d="M0 0 C3.1 1.5 6 3.2 9 5 C9.7 5.3 10.4 5.5 11.2 5.8 C13 7 13 7 13.9 9.9 C15.2 13.7 16.7 14.7 20 17 C20.8 17.6 21.5 18.2 22.3 18.8 C22.6 19 22.6 19 24 20 C22.3 21.6 22.3 21.6 20 23 C13.3 22.1 7.8 18.8 3.4 13.8 C0.2 9.7 -1.6 6.2 -1 1 C-0.7 0.7 -0.3 0.3 0 0 Z " transform="translate(438,324)"/><path d="M0 0 C3.4 1.9 3.4 1.9 6 4 C6 4.7 6 5.3 6 6 C5.5 6 5.5 6 2.8 5.9 C-2.5 6 -2.5 6 -5 8 C-5.8 10.1 -5.8 10.1 -6 12 C-11.8 10.2 -11.8 10.2 -14 8 C-14 5.6 -14 5.6 -13 3 C-8.7 0 -5.1 -0.6 0 0 Z " transform="translate(466,326)"/><path d="M0 0 C0.7 0.3 1.3 0.7 2 1 C1.8 1.9 1.5 2.8 1.3 3.7 C0.9 7.6 1.7 8.9 4 12 C4.7 12.7 5.3 13.3 6 14 C0.8 19 0.8 19 -2.8 19 C-3.5 18.7 -4.3 18.3 -5 18 C-6.3 14.2 -6.8 10.9 -6 7 C-4.3 4.3 -2.3 2.2 0 0 Z " transform="translate(389,331)"/><path d="M0 0 C0.8 2.1 0.8 2.1 1 5 C-1.1 8.8 -3.1 12 -7 14 C-9.7 14.5 -12.3 14.8 -15 15 C-15 14.3 -15 13.7 -15 13 C-14.6 12.6 -14.6 12.6 -12.5 10.9 C-9.9 7.8 -9.7 7.4 -9.7 3.7 C-9.8 2.5 -9.9 1.3 -10 0 C-6.3 -1.2 -3.8 -0.6 0 0 Z " transform="translate(504,335)"/><path d="M0 0 C0.7 0.3 1.4 0.7 2.1 1 C5.6 2.2 8.3 2.3 12 2 C13 1.3 14 0.7 15 0 C17.3 3.6 17.2 6.8 17 11 C16 12 16 12 12.8 12.3 C7.5 11.9 4.7 9.8 1.1 6 C0 4 0 4 0 0 Z " transform="translate(401,342)"/><path d="M0 0 C0.7 0 1.3 0 2 0 C2 0.6 1.9 1.2 1.9 1.8 C1.7 6.1 1.6 8.3 4 12.1 C4.7 12.7 5.3 13.3 6 14 C2.7 16.9 0.4 18.5 -4 19 C-6.3 15.3 -6.4 12.3 -6 8 C-4.2 4.9 -2.5 2.5 0 0 Z " transform="translate(463,344)"/><path d="M0 0 C0.4 0.3 0.4 0.3 2.6 2.1 C6 4 6 4 9.2 3.9 C12 3 12 3 15 1 C17 5.1 17.2 8.5 17 13 C13.5 14.2 12 14 8.4 12.8 C5.2 11.1 3.2 10 1 7 C0.2 3.2 0.2 3.2 0 0 Z " transform="translate(475,354)"/></g><g fill="#fbde22"><path d="M0 0 C5.5 0.8 8.3 3.4 11.9 7.6 C13.9 10.7 14.7 13.9 15.6 17.6 C14.5 21.9 11.8 23.4 8.2 25.9 C5.9 27.6 5.9 27.6 3.7 29.8 C1.9 31.6 1.9 31.6 -0.1 31.6 C-0.8 29.7 -1.4 27.8 -2.1 25.9 C-2.4 24.8 -2.8 23.8 -3.2 22.7 C-4.7 17.8 -5.3 13.5 -5.3 8.4 C-5.3 7.3 -5.3 6.3 -5.4 5.2 C-5 1.2 -3.9 0.7 0 0 Z " transform="translate(441.1,267.4)"/><path d="M0 0 C1 2.5 1.9 4.8 2.6 7.3 C2.8 8 3.1 8.7 3.3 9.4 C4.3 12.6 5.2 15.7 6 19 C-17.2 16.8 -17.2 16.8 -22 12 C-22.6 7.9 -22.2 6.3 -19.9 2.8 C-13.8 -3.1 -7.7 -2.6 0 0 Z " transform="translate(432,283)"/><path d="M0 0 C1.8 1.1 1.8 1.1 3 3 C3.6 8.3 3.2 12 0.3 16.4 C-2.1 19.3 -4.5 20.6 -8 22 C-9.9 21.3 -9.9 21.3 -12 20 C-12.8 19.5 -13.6 19.1 -14.5 18.6 C-15.3 18.1 -16.2 17.6 -17.1 17.1 C-17.9 16.6 -18.8 16.1 -19.7 15.5 C-21.7 14.2 -23.3 12.8 -25 11 C-19.8 5.3 -7.9 -3.1 0 0 Z " transform="translate(470,290)"/><path d="M0 0 C0.7 0 1.5 0 2.3 0 C3.1 0 3.9 0 4.7 0 C5.6 0 6.4 0 7.3 0.1 C8.2 0.1 9 0.1 9.9 0.1 C12 0.1 14.1 0.1 16.2 0.1 C14.8 9 11.3 17.2 4.2 23.1 C0.6 22.6 -1.3 21.5 -4.1 19.1 C-6.5 14.8 -6.4 10.9 -5.8 6.1 C-3 0.2 -3 0.2 0 0 Z " transform="translate(423.8,304.9)"/><path d="M0 0 C7.5 2.1 14.8 9.5 19 16 C19 17 19 18 19 19 C18.4 19.2 17.8 19.4 17.1 19.6 C16.7 19.7 16.7 19.7 14.7 20.4 C13.9 20.6 13.1 20.9 12.3 21.1 C10 22 10 22 7 24 C1.4 23.9 -1.7 21.3 -6 18 C-5.9 17.6 -5.9 17.6 -5.2 15.8 C-3.3 10.6 -1.4 5.4 0 0 Z " transform="translate(444,306)"/><path d="M0 0 C-0.5 1 -0.9 2 -1.4 3.1 C-2.9 6.6 -4 10.2 -5 14 C-7.2 10.8 -7.2 9.7 -7 6 C-7.7 6 -8.3 6 -9 6 C-8.6 3.1 -8.6 3.1 -8 0 C-5.1 -1.4 -3.1 -0.6 0 0 Z " transform="translate(408,311)"/><path d="M0 0 C0.6 0 0.6 0 3.8 0.1 C7.6 13.1 7.6 13.1 7.8 19.1 C6.6 20.9 6.6 20.9 4.8 22.1 C4.6 22.5 4.6 22.5 3.4 24.4 C2.9 25 2.3 25.5 1.8 26.1 C-0.2 26.2 -0.2 26.2 -2.2 25.1 C-4.6 22.2 -5.2 20.7 -5.2 16.9 C-4.9 16 -4.5 15.1 -4.2 14.1 C-1.6 13.2 -1.6 13.2 0.8 13.1 C0.5 12.5 0.2 11.8 -0.2 11.1 C-2.5 10.7 -4.8 10.4 -7.2 10.1 C-7.2 9.5 -7.2 8.8 -7.2 8.1 C-7.8 8.1 -8.5 8.1 -9.2 8.1 C-7.6 2.5 -6.2 -0.2 0 0 Z " transform="translate(394.2,317.9)"/><path d="M0 0 C3.9 0.1 5 1 7.8 3.8 C10 7 10 7 10.7 9.6 C10 12 10 12 7.2 14.2 C4 16 4 16 1 17 C-1.2 11.7 -1.5 6.7 -1 1 C-0.7 0.7 -0.3 0.3 0 0 Z " transform="translate(476,323)"/><path d="M0 0 C1.6 3.2 2.3 6.5 3 10 C1 10.3 -1 10.7 -3 11 C-3 10.3 -3 9.7 -3 9 C-4.1 8.9 -5.2 8.7 -6.4 8.6 C-10 8 -10 8 -12 7 C-12.4 4.6 -12.4 4.6 -12 2 C-8.2 -1.5 -4.8 -1.9 0 0 Z " transform="translate(472,332)"/><path d="M0 0 C0.3 0.4 0.3 0.4 1.6 2.4 C4.5 5.6 6.8 6.1 11 7 C10.4 9 10.4 9 9 11 C4 11.7 1.1 10.9 -3 8 C-2 5.4 -1 2.7 0 0 Z " transform="translate(404,334)"/><path d="M0 0 C1.4 2.9 1.3 4.8 1 8 C-1.2 11.3 -2.2 12.7 -6 14 C-8.1 12.4 -10.1 10.7 -12 9 C-12.7 8.7 -13.3 8.3 -14 8 C-14 7.3 -14 6.7 -14 6 C-11.4 4.5 -11.4 4.5 -8.1 2.9 C-7 2.3 -5.9 1.8 -4.8 1.2 C-2 0 -2 0 0 0 Z " transform="translate(494,335)"/><path d="M0 0 C2.5 -0.2 2.5 -0.2 5.6 -0.1 C6.1 -0.1 6.1 -0.1 8.6 -0.1 C9.4 -0 10.2 -0 11 0 C10.6 5.7 8.4 8.6 5 13 C0.1 11.2 0.1 11.2 -1 9 C-1.2 2.5 -1.2 2.5 0 0 Z " transform="translate(465,344)"/><path d="M0 0 C5 1.4 7.2 3.8 10 8 C9.7 10.3 9.7 10.3 8 12 C4.2 13.3 2.6 13.3 -1.1 11.6 C-1.7 10.8 -2.3 9.9 -3 9 C-2.5 5.8 -1.3 3 0 0 Z " transform="translate(479,346)"/></g><g fill="#9f8256"><path d="M0 0 C0.4 -0 0.4 -0 2.4 -0.1 C4.6 -0.1 4.6 -0.1 8.4 0.2 C9 1.2 9.7 2.2 10.4 3.2 C2.9 11.4 -8.3 17.9 -19.6 18.4 C-20.2 18.3 -20.9 18.3 -21.6 18.2 C-21.6 18.9 -21.6 19.6 -21.6 20.2 C-20.5 20.4 -19.4 20.5 -18.2 20.6 C11.1 24.3 45.1 40.1 67.4 59.2 C68.4 60.1 69.4 61 70.5 61.9 C72.1 63.2 73.7 64.6 75.3 65.9 C78.3 68.5 81.3 71 84.5 73.4 C91.8 79 97.5 83.7 101.8 92.1 C103.7 95.8 105.9 99.1 108.2 102.5 C121.4 121.9 132.6 143.2 138.2 166 C138.4 166.9 138.6 167.8 138.9 168.7 C140.2 174.3 140.6 179.4 140.4 185.2 C137.2 182.6 136.2 179.7 134.7 175.9 C134.2 174.6 133.7 173.3 133.2 172 C132.5 170 131.7 168 130.9 166 C127.7 157.3 124 149.3 119.2 141.3 C117.5 138.4 115.9 135.4 114.3 132.4 C112 128.1 109.4 124.8 106.1 121.3 C104.2 119.1 102.8 116.7 101.2 114.2 C94.7 103.6 86.1 94 76.2 86.4 C73.5 84.4 70.9 82.2 68.3 80 C62.6 75.3 56.6 71.2 50.4 67.2 C49.3 66.6 48.2 65.9 47.1 65.2 C37.8 59.4 28.4 54.5 18.4 50.2 C17.6 49.9 16.9 49.6 16.2 49.3 C7.2 45.5 -2 42.4 -11.4 39.8 C-12.4 39.6 -13.3 39.3 -14.3 39 C-18.5 37.9 -22.2 37.1 -26.6 37.2 C-26.4 37.4 -26.4 37.4 -25.4 38.3 C-17 46.1 -10.1 57.3 -6.6 68.2 C-6.5 71.6 -6.5 71.6 -6.6 74.2 C-8.4 74.9 -8.4 74.9 -10.6 75.2 C-19.6 70.6 -27.1 61.1 -30.8 51.8 C-32.5 46.4 -33.6 40.8 -34.6 35.2 C-85.4 30.5 -138.6 44.4 -179.6 75.2 C-179 75 -178.4 74.8 -177.8 74.6 C-159.2 67.5 -142.7 62.8 -122.7 63.5 C-116 63.6 -110.9 63.1 -105.7 58.6 C-105.3 58.1 -105 57.7 -104.6 57.2 C-104 57.6 -103.3 57.9 -102.6 58.2 C-103.6 59.2 -104.5 60.2 -105.4 61.2 C-105.7 61.5 -105.7 61.5 -107 62.8 C-110.3 65.7 -113.6 65.4 -117.7 65.4 C-143.5 65.7 -166.3 70 -188.8 83.4 C-189.4 83.7 -190 84 -190.6 84.2 C-191 84.1 -191 84.1 -192.6 83.2 C-163.6 54.9 -120.4 38.3 -80.6 33.2 C-79.9 33.2 -79.2 33.1 -78.4 33 C-71.3 32.1 -64.1 32.1 -57 32.1 C-54.9 32.1 -52.8 32 -50.7 32 C-49.3 32 -48 32 -46.6 32 C-45.4 32 -44.2 32 -43 32 C-39.6 32.3 -36.8 33.1 -33.6 34.2 C-31.9 34.2 -30.3 34.2 -28.6 34.1 C-24 34.3 -20 35.1 -15.6 36.2 C-14.7 36.5 -13.8 36.7 -12.9 36.9 C11.2 43.3 35.4 53.3 55.7 68 C57.5 69.3 59.2 70.5 61 71.8 C67.5 76.2 73.4 80.8 79.2 86.2 C81.2 88 83.2 89.8 85.3 91.5 C93.1 98.3 99.7 106.6 104.8 115.7 C106.5 118.4 108.5 120.8 110.6 123.3 C115.3 129 118.9 135 122.4 141.5 C123 142.6 123.6 143.7 124.2 144.9 C129.8 155.7 134.3 166.8 138.4 178.2 C132 149 121.1 124.9 104 100.2 C101.8 97 99.8 93.7 97.9 90.3 C93.8 83.9 88.2 79.1 82.4 74.2 C81.5 73.5 80.6 72.8 79.7 72 C77.9 70.5 76.1 69.1 74.3 67.6 C72.2 65.9 70.2 64.2 68.1 62.4 C41.2 39.5 5.4 27.7 -28.6 20.2 C-28.6 19.3 -28.6 18.3 -28.6 17.2 C-29.2 17.4 -29.8 17.6 -30.4 17.7 C-32.6 18.2 -34.5 18.4 -36.8 18.4 C-37.6 18.4 -38.5 18.4 -39.3 18.4 C-40.2 18.4 -41.1 18.4 -42 18.4 C-43.9 18.4 -45.8 18.5 -47.7 18.5 C-48.7 18.5 -49.7 18.5 -50.7 18.5 C-112.4 19.3 -164.3 39.8 -207.6 84.1 C-211.1 87.7 -214.4 91.4 -217.6 95.2 C-219.9 97.8 -219.9 97.8 -221.6 99.2 C-222.3 99.2 -222.9 99.2 -223.6 99.2 C-224.3 100.9 -225 102.6 -225.6 104.2 C-226.7 106 -227.7 107.8 -228.8 109.6 C-239.8 128.2 -246.5 149.6 -252.6 170.2 C-250.8 168.4 -250 165.8 -248.9 163.4 C-242.3 149.1 -235.6 135.6 -225.6 123.2 C-225.3 122.8 -225.3 122.8 -223.4 120.5 C-202.9 96.5 -170 78.6 -138.6 75.2 C-134.5 75.1 -130.3 75 -126.2 75 C-125.1 75 -124 75 -122.9 74.9 C-116.4 74.9 -111.5 75.5 -105.6 78.2 C-104.1 79.7 -104.2 81.3 -103.9 83.3 C-102.3 90.5 -98.8 96.2 -92.6 100.2 C-91.6 100.6 -90.6 100.9 -89.6 101.2 C-98 83.9 -98 83.9 -103.6 76.2 C-95.3 77 -88.8 79.5 -81.5 83.4 C-79.6 84.2 -79.6 84.2 -76.2 85.1 C-73.6 86.2 -73.6 86.2 -72.4 89 C-72.1 90.4 -71.9 91.8 -71.6 93.2 C-68.7 108.6 -68.7 108.6 -64.6 113.2 C-64.3 113.2 -64 113.2 -63.6 113.2 C-63.8 104.5 -66.2 97.3 -69.6 89.2 C-68.3 88.9 -67 88.6 -65.6 88.2 C-61.9 93.2 -60.5 97.8 -58.9 103.7 C-56.8 111.1 -54.6 116.3 -47.6 120.2 C-48 119.6 -48.3 118.9 -48.6 118.2 C-48.9 116 -49.1 113.8 -49.4 111.6 C-50.2 105.3 -51.7 101.2 -55.6 96.2 C-56.2 95.4 -56.8 94.6 -57.4 93.8 C-57.8 93.3 -58.2 92.8 -58.6 92.2 C-53.7 93.8 -49.3 96.7 -45.6 100.2 C-44.4 103.3 -44.7 105.2 -45.6 108.2 C-46.3 115 -45.8 120.7 -41.6 126.2 C-40 127.6 -38.3 129 -36.6 130.2 C-36.8 129.1 -37.1 128 -37.3 126.8 C-37.6 125.2 -37.8 123.7 -38.1 122.2 C-38.3 121.4 -38.4 120.7 -38.6 119.9 C-39.4 115.3 -39.8 111 -39.6 106.2 C-33.3 109.3 -28.6 113.5 -24.6 119.2 C-25 119.9 -25.3 120.6 -25.6 121.2 C-26.2 120.5 -26.9 119.8 -27.5 119.1 C-28.3 118.2 -29.1 117.3 -29.9 116.3 C-30.7 115.4 -31.5 114.5 -32.4 113.5 C-34.6 111.3 -34.6 111.3 -37.6 110.2 C-37.5 110.8 -37.4 111.4 -37.3 112 C-36.9 114.5 -36.5 117.1 -36.1 119.6 C-35.9 120.5 -35.8 121.4 -35.6 122.3 C-35.5 122.7 -35.5 122.7 -35.2 124.9 C-35.1 125.7 -34.9 126.5 -34.8 127.3 C-34.6 129.3 -34.6 129.3 -35.6 131.2 C-40.4 130.8 -42.5 128.9 -45.6 125.2 C-45.6 124.6 -45.6 123.9 -45.6 123.2 C-46.3 123 -47 122.8 -47.7 122.6 C-52.1 120.6 -54.9 118.3 -57.6 114.2 C-59.1 110.2 -60.3 106.2 -61.5 102.1 C-62.7 97.8 -64.4 94.1 -66.6 90.2 C-66.3 91.2 -65.9 92.1 -65.6 93 C-60.7 106 -60.7 106 -60.6 112.2 C-61.3 113.2 -61.9 114.2 -62.6 115.2 C-66.2 114.6 -66.6 114.2 -69.2 111.2 C-72.5 105.6 -73.1 99.2 -74 92.9 C-74.6 89.2 -74.6 89.2 -75.6 87.2 C-76.9 87.2 -78.3 87.2 -79.6 87.2 C-79.3 87.9 -78.9 88.6 -78.6 89.3 C-75.6 95.5 -74 100.4 -73.6 107.2 C-77.1 107.3 -79.1 106.7 -81.7 104.5 C-87.5 98.2 -90.7 92.9 -90.8 84.2 C-90.8 82.9 -90.7 81.6 -90.6 80.2 C-93.6 79.9 -96.6 79.6 -99.6 79.2 C-98.8 80.3 -97.9 81.4 -97 82.5 C-93.2 87.6 -89.8 93.2 -87.6 99.2 C-88 101.6 -88 101.6 -88.6 103.2 C-95.4 101.4 -99.5 98 -103.5 92.4 C-104.9 89.8 -105.3 87.3 -105.9 84.4 C-106.6 81.6 -106.6 81.6 -107.6 79.2 C-111.2 77.6 -112.8 77.3 -116.6 77.2 C-117.8 77.2 -119.1 77.1 -120.3 77.1 C-143.3 76.2 -164.6 82.2 -184.6 93.2 C-185.3 93.6 -185.9 94 -186.6 94.3 C-195.3 99.2 -203.1 104.7 -210.6 111.2 C-211.3 111.7 -211.9 112.2 -212.5 112.8 C-232.4 128.6 -242.7 154.7 -252.6 177.2 C-253.6 176.9 -254.6 176.6 -255.6 176.2 C-255 171.1 -253.8 166.3 -252.2 161.3 C-252.1 161 -252.1 161 -251.4 159.1 C-250.7 156.7 -249.9 154.3 -249.1 151.9 C-248.8 151.1 -248.5 150.3 -248.2 149.5 C-244.3 137.8 -240.3 126.2 -234.6 115.2 C-234.5 114.9 -234.5 114.9 -233.6 113.3 C-230.2 106.9 -226.9 101.2 -221.6 96.2 C-218.2 92.9 -214.8 89.5 -211.6 85.8 C-186.4 56.6 -152.8 34.6 -115.6 24.2 C-114.8 24 -114 23.8 -113.2 23.6 C-91.2 17.6 -69.9 15.8 -47.1 16.4 C-46.4 16.4 -45.6 16.4 -44.8 16.4 C-43.3 16.4 -41.8 16.5 -40.4 16.5 C-33.4 16.6 -29.1 14 -24.2 9.3 C-16.5 2.3 -10.2 0.1 0 0 Z M-25.6 12.2 C-26 12.9 -26.3 13.6 -26.6 14.2 C-25.8 14 -24.9 13.7 -24.1 13.4 C-20.6 12.2 -17.1 11.2 -13.6 10.2 C-15.3 11.2 -15.3 11.2 -23.6 16.2 C-19.1 17.4 -16.4 16.6 -12.1 15.2 C-11.7 15.1 -11.7 15.1 -9.9 14.6 C-3.6 12.5 2.3 9.6 7.4 5.2 C7.7 4.3 8 3.3 8.4 2.2 C-3.3 -3.6 -17.4 4.4 -25.6 12.2 Z M-27.6 39.2 C-27 43.4 -26.1 47.3 -24.6 51.2 C-26.6 48.3 -28.6 45.2 -30.6 42.2 C-30.3 53.4 -24.5 61.6 -16.6 69.2 C-13.7 71.7 -11.6 73.2 -7.6 73.2 C-9.2 60.6 -17.4 47.8 -26.6 39.2 C-27 39.2 -27.3 39.2 -27.6 39.2 Z M-31.6 40.2 C-30.6 42.2 -30.6 42.2 -30.6 42.2 Z M-89.6 82.2 C-89.2 90.2 -87.4 96.3 -81.8 102.1 C-77.2 106.2 -77.2 106.2 -74.6 106.2 C-76.1 98.1 -78.3 89.7 -84.8 84.1 C-87.6 82.2 -87.6 82.2 -89.6 82.2 Z M-49.6 100.2 C-49.3 102.6 -49 104.9 -48.6 107.2 C-48 106.6 -47.3 105.9 -46.6 105.2 C-46.6 103.9 -46.6 102.6 -46.6 101.2 C-47.6 100.9 -48.6 100.6 -49.6 100.2 Z " transform="translate(296.6,-0.2)"/><path d="M0 0 C-2.1 4.9 -5.3 6.7 -10 9 C-18.7 12.4 -28.4 15.4 -37.7 13.1 C-38.5 12.7 -39.2 12.4 -40 12 C-39.7 8.7 -39.4 7.3 -36.9 5.1 C-26.1 -1.6 -12.1 -7.1 0 0 Z M-35 6 C-32 7 -30.8 7 -27.8 6.6 C-26.6 6.4 -25.3 6.2 -24 6 C-24.4 6.2 -24.4 6.2 -26.6 7.1 C-27.7 7.5 -28.9 8 -30 8.4 C-31.1 8.9 -32.2 9.3 -33.4 9.8 C-34.2 10.2 -35.1 10.6 -36 11 C-36 11.3 -36 11.7 -36 12 C-24.4 13 -12.9 10.1 -3.4 3.4 C-3.2 3.1 -3.2 3.1 -2 2 C-2 1.3 -2 0.7 -2 0 C-13.7 -3.5 -25.1 -0.6 -35 6 Z " transform="translate(333,10)"/><path d="M0 0 C48.8 -1 99.6 17.2 135.9 50.1 C136.3 50.5 136.3 50.5 138.6 52.5 C141.1 54.7 143.5 56.9 145.9 59.1 C146.6 59.8 147.4 60.5 148.1 61.2 C161.5 74 171.8 89.9 181.1 105.9 C181.5 106.6 181.9 107.2 182.3 107.9 C183.2 109.6 184.1 111.4 184.9 113.1 C184.6 114.1 184.2 115.1 183.9 116.1 C183.4 115.2 182.8 114.2 182.3 113.2 C155.8 64.7 113.5 29.6 60.5 13.4 C12.3 -0.7 -37.8 3.4 -83.1 25.1 C-83.5 25.3 -83.5 25.3 -85.6 26.3 C-121.1 43.5 -150.8 71.4 -171.1 105.1 C-171.4 104.5 -171.8 103.8 -172.1 103.1 C-171 100.8 -169.8 98.7 -168.5 96.5 C-168.1 95.8 -167.7 95.2 -167.3 94.5 C-162.3 86.5 -156.3 79.3 -150.1 72.1 C-149.3 71.2 -148.5 70.2 -147.7 69.3 C-145.5 66.8 -143.3 64.5 -141.1 62.1 C-140.3 61.2 -139.5 60.4 -138.6 59.5 C-102.6 22.2 -51.3 2 0 0 Z " transform="translate(235.1,21.9)"/><path d="M0 0 C1.8 1.3 1.8 1.3 3.8 3.3 C3.8 5.8 3.8 5.8 2.8 8.3 C-7.5 12.3 -21.8 10.7 -32.2 7.3 C-35.3 5.7 -35.3 5.7 -37.2 4.3 C-37.2 2.5 -37.2 2.5 -36.2 0.3 C-25.2 -5.3 -10.9 -6.4 0 0 Z M-30.2 -0.7 C-30.2 -0.4 -30.2 -0.1 -30.2 0.3 C-28.7 0.6 -28.7 0.6 -21.2 2.3 C-25.2 2.9 -29.1 3.6 -33.2 4.3 C-26.6 8.7 -18.6 8.5 -10.8 8.5 C-10.1 8.5 -9.3 8.6 -8.5 8.6 C-4.6 8.5 -1.5 8.5 1.8 6.3 C1.7 4.5 1.7 4.5 0.8 2.3 C-8.9 -4.1 -19.3 -4.1 -30.2 -0.7 Z " transform="translate(352.2,25.7)"/><path d="M0 0 C8.2 2 15.1 6.1 20 13 C20 14 20 15 20 16 C7.1 16.6 -5.6 15.9 -16.6 8.3 C-18 7 -18 7 -19.2 4.3 C-19.1 3.5 -19.1 2.8 -19 2 C-13.7 -1.6 -6.2 -0.7 0 0 Z M-16 3 C-11.7 4.3 -7.4 5.6 -3 7 C-7.3 6.7 -11.6 6.3 -16 6 C-8.9 13.1 3.3 15.1 13.1 15.1 C14.7 15.1 16.4 15.1 18 15 C15.5 9.4 10.9 5.7 5.4 3.2 C-1.9 0.6 -9 -0.5 -16 3 Z " transform="translate(363,38)"/><path d="M0 0 C8 3 12.2 11.6 16.1 18.7 C16.6 19.6 17.2 20.5 17.7 21.5 C24.2 33 24.2 33 23.8 39.1 C20.8 40.1 20.8 40.1 18.8 39.1 C9.8 33 3.9 26.7 -1.2 17.1 C-1.5 16.4 -1.9 15.8 -2.2 15.1 C-4.4 10.6 -4.6 7 -4.2 2.1 C-2.2 0.1 -2.2 0.1 0 0 Z M-3.2 3.1 C-2.7 15.3 4.2 24.9 12.8 33.1 C18.7 38.1 18.7 38.1 22.8 38.1 C20.9 31.9 18.6 26.2 15.6 20.6 C15.2 19.8 14.8 19.1 14.4 18.3 C11.3 12.5 7.6 7.6 2.8 3.1 C1.7 6.3 1.9 7.1 2.8 10.2 C3.1 11.5 3.5 12.8 3.8 14.1 C-0.6 6.6 -0.6 6.6 -1.2 3.1 C-1.8 3.1 -2.5 3.1 -3.2 3.1 Z " transform="translate(290.2,41.9)"/><path d="M0 0 C5 1.6 6.8 4.6 9.3 9.1 C13.6 18.6 16.7 27.6 16.3 38.1 C11.2 37.4 9.4 35.6 6.2 31.7 C0.6 23.8 -5.3 13.5 -4.4 3.6 C-3.4 0.1 -3.4 0.1 0 0 Z M-2.7 2.1 C-3.7 12.9 1.3 22.4 7.6 30.9 C9.4 33.1 11.2 35.2 13.3 37.1 C14 37.1 14.6 37.1 15.3 37.1 C14.8 25.8 11.4 14.6 5.3 5.1 C4.3 4.4 3.3 3.7 2.3 3.1 C2.6 6.7 3 10.3 3.3 14.1 C3.1 13.6 3.1 13.6 2.3 11.4 C1.8 10.3 1.3 9.2 0.9 8.1 C0.4 6.9 -0 5.8 -0.5 4.7 C-0.7 4.3 -0.7 4.3 -1.7 2.1 C-2 2.1 -2.3 2.1 -2.7 2.1 Z " transform="translate(316.7,52.9)"/><path d="M0 0 C0.7 0.3 1.3 0.7 2 1 C0.8 1.8 -0.4 2.6 -1.6 3.4 C-2 3.6 -2 3.6 -3.7 4.7 C-6.4 6.2 -9.1 7.1 -12 8 C-8.8 8.9 -5.7 9.7 -2.5 10.6 C-1.6 10.8 -0.7 11.1 0.2 11.3 C7 13.1 12.2 13.4 18.9 10.9 C25.6 8.9 32.5 9.7 39 12 C40.6 13.9 40.6 13.9 41 16 C40.6 18.2 40.6 18.2 40 20 C41.2 20.1 42.3 20.1 43.5 20.2 C51.6 21.2 56.2 26 61.2 32.1 C63.6 34.6 66.3 36.3 69.3 38 C71 39 71 39 73 41 C72.6 43.1 72.6 43.1 72 45 C67.7 45 63.3 45 59 45 C61.7 49.3 61.7 49.3 64 51 C66.3 51 68.3 50.6 70.5 50.2 C76.3 49.8 81.4 52.8 85.8 56.1 C88.3 59.4 89.9 62.8 91.6 66.5 C93.4 69.8 95.8 72 98.6 74.5 C100.5 76.5 100.9 78.2 101 81 C92.5 80.5 85.7 77.2 79 72 C80.3 75.1 81.7 77.6 84 80 C87 81.1 90 81.8 93.2 82.4 C99.6 83.8 102.4 88.6 105.9 93.8 C107 96 107 96 107 100 C104 101 104 101 101.9 100.1 C101.2 99.7 100.4 99.3 99.6 98.8 C98.9 98.4 98.1 98 97.4 97.5 C94.8 95.8 92.4 94 90 92 C90.3 93.2 90.6 94.5 90.9 95.7 C91.3 97.4 91.6 99 92 100.6 C92.2 101.4 92.4 102.2 92.6 103.1 C93.6 107.5 94.2 111.5 94 116 C93.5 116.2 93.5 116.2 91 117 C90 119.7 90 119.7 89.1 123.2 C87.6 128.6 86.3 132.3 82 136 C81 135.7 80 135.3 79 135 C78.6 132.5 78.6 132.5 78.5 129.4 C78.4 125.6 78.1 123.1 76.5 119.6 C74.8 115.4 74.5 112.3 74.6 107.9 C74.6 107.2 74.6 106.5 74.6 105.8 C74.6 101.4 75.2 98.4 78 95 C80.2 94.2 80.2 94.2 82 94 C77.3 84.7 71.8 76.3 64.9 68.4 C64.3 67.6 63.7 66.8 63 66 C63.3 65.3 63.7 64.7 64 64 C75.8 75.5 84.3 90.7 90 106 C90 103.4 89.3 101.3 88.6 98.8 C88.4 97.8 88.1 96.9 87.8 95.8 C86.9 92.6 85.9 89.3 85 86 C86.3 86.9 87.6 87.8 88.9 88.6 C89.8 89.2 90.6 89.7 91.4 90.3 C93.1 91.4 94.8 92.6 96.5 93.7 C97.3 94.2 98.1 94.8 98.9 95.3 C99.7 95.8 100.4 96.3 101.2 96.8 C103 98 103 98 105 99 C102.4 93.1 99.7 88.5 94.2 84.8 C92 84 92 84 88.1 83.8 C84.7 83.4 84.1 83.1 81.4 80.6 C79.4 77.9 77.9 74.9 76.3 71.9 C71.1 62 63.6 53.2 56 45 C55.3 44.3 54.6 43.5 53.9 42.8 C52 41 52 41 48.8 38.9 C47.8 38.3 46.9 37.6 46 37 C46 36.3 46 35.7 46 35 C44.3 34.3 42.7 33.6 41 33 C39.2 31.9 37.4 30.8 35.7 29.6 C30.3 26.1 25 23.2 19 20.8 C18.3 20.5 17.7 20.3 17 20 C17 19.7 17 19.3 17 19 C23.9 19 30.9 19 38 19 C38 17.3 38 15.7 38 14 C30.6 12.4 24.7 11.3 17.5 14.3 C9.3 16.6 1 13.9 -7 12 C-8.3 11.7 -9.5 11.4 -10.8 11.1 C-13.9 10.4 -16.9 9.7 -20 9 C-15.7 6.2 -11.1 4.9 -6.2 3.2 C-3 2 -3 2 0 0 Z M31 23 C31 23.7 31 24.3 31 25 C36.5 29.1 42.5 31.8 49 34 C48.7 35 48.3 36 48 37 C55.5 41 62.3 44.4 71 44 C71 43 71 42 71 41 C69.3 39.6 69.3 39.6 67.1 38.3 C66.4 37.9 65.7 37.4 64.9 37 C63 36 63 36 61 36 C60.3 34.7 59.6 33.4 59 32 C55 25.8 50.1 22.8 43 21 C38.7 20.4 34.6 20.3 31 23 Z M66 54 C67.7 55.5 69.5 56.9 71.2 58.4 C71.7 58.8 71.7 58.8 74.2 60.8 C76.5 62.6 78.4 63.9 81 65 C80.7 65.2 80.7 65.2 79 66 C79.3 69.2 79.5 70.6 82 72.7 C87.5 75.8 92.9 78.3 99 80 C98.4 76.6 97.4 75.2 94.8 73 C91.5 69.9 90 67 88.2 62.9 C85.6 57.3 83.1 55 77.5 52.7 C73.1 51.5 69.4 50.6 66 54 Z M73 62 C74.2 64.5 75 66 77 68 C77 67.3 77 66.7 77 66 C77.7 65.7 78.3 65.3 79 65 C77 64 75 63 73 62 Z M78 70 C79 72 79 72 79 72 Z M80 95 C75.6 99.9 75.7 104.9 75.8 111.2 C76.1 115 77.2 117.6 79 121 C82.9 117.1 84.2 111.2 84.3 105.9 C84 101.9 83.3 98.8 82 95 C81.3 95 80.7 95 80 95 Z M84 98 C85 100 85 100 85 100 Z M85 100 C85 103.6 85 107.3 85 111 C86 110 87 109 88 108 C87.8 104.4 87.6 102.6 85 100 Z M88 110 C82.3 115.8 79.8 121.9 79.8 130.1 C79.9 131.4 79.9 132.7 80 134 C83.4 132.6 84.7 131.4 86.2 128.1 C86.5 127.4 86.8 126.8 87.2 126.1 C88.7 122.2 89.1 118.9 89.1 114.8 C89.1 113.9 89 113 89 112 C89 111.4 89 110.7 89 110 C88.7 110 88.3 110 88 110 Z " transform="translate(209,57)"/><path d="M0 0 C0.6 0.5 1.3 1 1.9 1.5 C1.3 3.4 1.3 3.4 -0.1 5.5 C-6.6 8.5 -13.9 10.4 -21.1 9.5 C-24.1 8 -24.1 8 -26.1 6.5 C-25 3.6 -24.4 2.7 -21.6 1.2 C-7 -3.4 -7 -3.4 0 0 Z M-17.4 2 C-17.7 2.1 -17.7 2.1 -19.3 2.7 C-20.9 3.3 -22.5 3.9 -24.1 4.5 C-24.1 5.2 -24.1 5.8 -24.1 6.5 C-16.1 9.4 -9.4 7.7 -1.7 4.5 C-1.2 4.2 -0.6 3.8 -0.1 3.5 C-0.1 2.8 -0.1 2.2 -0.1 1.5 C-6.3 -1.7 -11.1 -0.4 -17.4 2 Z " transform="translate(233.1,58.5)"/><path d="M0 0 C12.1 0.1 20.9 5.4 29.9 13.3 C31.6 15.3 31.6 15.3 31.6 18.3 C18 19.5 4.3 16.1 -6.4 7.3 C-7.5 4.1 -7.5 4.1 -7.4 1.3 C-5.6 -0.6 -2.5 0.1 0 0 Z M-3.4 1.3 C-0.9 3 1.4 4.2 4.2 5.4 C5.7 6.1 7.1 6.7 8.6 7.3 C3.6 6.3 -1.3 5.3 -6.4 4.3 C-2.8 8 0.2 9.9 4.8 11.9 C5.4 12.2 6.1 12.5 6.7 12.8 C12.7 15.6 18.9 17.6 25.6 17.4 C25.9 17.4 25.9 17.4 27.9 17.4 C28.4 17.4 29 17.3 29.6 17.3 C26.9 10.6 19.2 6.8 13.2 3.4 C7.7 1.8 2.2 1.6 -3.4 1.3 Z " transform="translate(377.4,56.7)"/><path d="M0 0 C7.8 3.5 10.9 10.2 13.9 17.9 C16.4 24.9 18.5 31.5 18 39 C15.5 39.9 14.4 40.2 12 39.1 C4.7 33.7 2.4 28 0.8 19.2 C-0.2 12.8 -0.2 6.5 0 0 Z M5 6 C5.3 9.6 5.7 13.3 6 17 C5.3 14.9 4.5 12.8 3.8 10.8 C3.5 10.2 3.3 9.6 3 9 C2.7 9 2.3 9 2 9 C1.5 18.1 2.9 27.8 9 35 C12 37.9 12.6 38 17 38 C15.7 26.7 13.3 14.3 5 6 Z " transform="translate(334,62)"/><path d="M0 0 C18.6 15.8 18.6 15.8 24.8 25.4 C24.5 26.1 24.2 26.7 23.8 27.4 C23.1 26.6 22.3 25.7 21.5 24.8 C18.8 21.9 16.1 18.9 13.3 16 C12.1 14.7 11 13.4 9.8 12.1 C-9.6 -8.7 -42.1 -22.3 -70.3 -23.8 C-105.1 -25 -139.2 -16.4 -165.8 7.2 C-168.2 9.5 -170.6 11.8 -172.9 14.2 C-175.5 16.8 -178.3 19.1 -181.2 21.4 C-172.7 1.7 -146.1 -12 -127.2 -19.6 C-84.7 -35.2 -35.7 -28.4 0 0 Z " transform="translate(254.2,95.6)"/><path d="M0 0 C3.2 0.2 4.2 1.2 6.5 3.5 C14.1 13.4 16.3 26.8 16 39 C12 39 12 39 10.3 37.8 C1.2 28.8 -2.2 18.3 -2.3 5.7 C-2 3 -2 3 0 0 Z M3 3 C3.7 7.6 4.3 12.2 5 17 C3.7 13.4 2.4 9.7 1 6 C0.3 6 -0.3 6 -1 6 C-0.6 18.8 3 27.3 11.6 36.7 C13 38 13 38 15 38 C12.6 13.4 12.6 13.4 5 4 C4.3 3.7 3.7 3.3 3 3 Z " transform="translate(359,79)"/><path d="M0 0 C12.8 1.3 21.3 5.6 30 15.1 C33.1 19.5 33.1 19.5 32.7 22.9 C32.5 23.7 32.2 24.4 32 25.1 C19 24.6 7.5 16 -1.8 7.5 C-3.3 5.7 -3.8 4.4 -4 2.1 C-2 0.1 -2 0.1 0 0 Z M5 3.1 C5.8 3.7 6.6 4.4 7.4 5 C10 7.1 10 7.1 11 9.1 C10.4 8.8 9.8 8.5 9.1 8.2 C8.3 7.8 7.5 7.4 6.7 7.1 C5.9 6.7 5.1 6.3 4.3 5.9 C2 5.1 2 5.1 -1 6.1 C5.1 11.7 11.1 16 18.4 19.6 C18.7 19.8 18.7 19.8 20.4 20.6 C23.9 22.3 27.2 23.6 31 24.1 C31.3 23.5 31.7 22.8 32 22.1 C28.7 14.2 22 8.3 14.3 4.7 C11.1 3.4 8.5 2.7 5 3.1 Z " transform="translate(399,81.9)"/><path d="M0 0 C1.9 0.3 1.9 0.3 4 1 C9 11.8 9.4 25.6 6 37 C4.1 40.3 4.1 40.3 2 42 C-1 41 -1 41 -2.1 38.9 C-2.5 38 -2.8 37.1 -3.1 36.2 C-3.5 35.4 -3.8 34.5 -4.1 33.6 C-7.6 23 -6.3 13.2 -2 3 C-1.3 2 -0.7 1 0 0 Z M-1 4 C0 7 0 7 0 7 Z M3 5 C2.9 5.6 2.7 6.3 2.6 6.9 C2.4 7.8 2.2 8.6 2.1 9.4 C1.9 10.3 1.7 11.1 1.5 11.9 C1 14 1 14 0 15 C-0.3 12.4 -0.7 9.7 -1 7 C-4.6 10.6 -5 15.7 -5 20.7 C-4.6 27.6 -2.7 33.6 0 40 C1.9 39.4 1.9 39.4 4 38 C6 32.9 6.3 28.1 6.2 22.6 C6.2 21.9 6.2 21.1 6.2 20.4 C6.2 15 5.5 10.2 4 5 C3.7 5 3.3 5 3 5 Z " transform="translate(384,103)"/><path d="M0 0 C10.6 0.2 17.7 5.1 25.1 12.3 C30 17.6 30 17.6 30 22.2 C18.1 22.2 5.7 17.3 -3 9.2 C-3.6 8.8 -4.1 8.3 -4.7 7.7 C-5.1 7.2 -5.6 6.8 -6 6.2 C-5.5 1.3 -4.9 0.1 0 0 Z M-1 2.2 C1.2 3.7 3.4 5.1 5.7 6.4 C6.8 7 7.9 7.6 9 8.2 C4.7 7.3 0.4 6.3 -4 5.2 C2.3 14.7 14.4 18.5 25 21.2 C26.3 21.2 27.6 21.2 29 21.2 C25.3 13.1 18.7 7.6 11 3.2 C8.1 2.3 6.3 2.1 3.3 2.2 C2.5 2.2 1.7 2.2 0.9 2.2 C0.2 2.2 -0.4 2.2 -1 2.2 Z " transform="translate(420,106.8)"/><path d="M0 0 C2.9 1.7 3.9 2.7 5 5.8 C7.5 17.8 8.9 29.5 4 41 C1 40.7 -0 40 -2.2 37.8 C-7.2 30.1 -7.1 17.7 -5.2 8.8 C-4 5 -2.7 2.8 0 0 Z M-2 4 C-4.1 9.2 -4.3 13.8 -4.3 19.4 C-4.3 20.2 -4.3 21 -4.4 21.8 C-4.4 27.9 -3.7 34.1 0.6 38.7 C1.1 39.1 1.5 39.6 2 40 C2.3 39.8 2.3 39.8 4 39 C5.6 34.3 5.2 29.6 5.2 24.8 C5.2 23.7 5.2 22.7 5.2 21.6 C5.2 16 4.9 11.3 3 6 C2.7 6 2.3 6 2 6 C1.3 9.6 0.7 13.3 0 17 C-0.3 12.7 -0.7 8.4 -1 4 C-1.3 4 -1.7 4 -2 4 Z " transform="translate(400,123)"/><path d="M0 0 C1.9 0.2 1.9 0.2 4 1 C6.3 5.2 6.3 9.4 6.2 14.1 C6.3 14.8 6.3 15.6 6.3 16.3 C6.3 20.1 6.1 21.8 4 25 C1.4 24.6 0.2 24.2 -1.6 22.3 C-4.5 17.5 -5.4 13.5 -4.6 8 C-3.7 4.8 -2 2.6 0 0 Z M1 1 C-2.5 5.3 -3.6 8.2 -3.3 13.8 C-2.9 17 -1.8 19.3 0 22 C1 22.7 2 23.3 3 24 C4.9 19.2 5.2 15.4 4.8 10.2 C4.7 8.9 4.7 7.6 4.6 6.3 C4.4 5.2 4.2 4.1 4 3 C3 2.3 2 1.7 1 1 Z " transform="translate(267,125)"/><path d="M0 0 C9.5 0.5 16.7 3.2 23.4 10.2 C27.7 15.5 30.8 20.7 31.2 27.6 C31.2 28.4 31.1 29.2 31 30 C18.9 28.8 8.9 16.5 1 8 C-1 5 -1 5 -0.6 2.3 C-0.4 1.5 -0.2 0.8 0 0 Z M5 2 C5.8 2.8 6.5 3.5 7.3 4.3 C9.2 6.2 11.1 8.1 13 10 C12.3 9.6 11.6 9.3 10.9 8.9 C10 8.4 9.1 7.9 8.1 7.4 C7.2 7 6.3 6.5 5.4 6 C4.6 5.7 3.8 5.3 3 5 C2.7 5.2 2.7 5.2 1 6 C19.5 25.5 19.5 25.5 30 29 C28.6 19.6 24.5 12.5 17.1 6.5 C13.2 3.8 9.6 2.8 5 2 Z " transform="translate(426,130)"/><path d="M0 0 C1.3 0 2.6 0 4 0 C6.3 7.9 6.1 15 4 23 C3.3 23.7 2.7 24.3 2 25 C-1.1 24.6 -1.1 24.6 -4 24 C-4.6 15.3 -2.9 8.2 0 0 Z M1 1 C-3.6 14.4 -3.6 14.4 -3 22 C-1.4 22.3 0.3 22.7 2 23 C3.7 18.5 4.3 14.6 4.3 9.8 C4.3 8.5 4.3 7.3 4.4 6 C4.2 5 4.1 4 4 3 C3 2.3 2 1.7 1 1 Z " transform="translate(277,137)"/><path d="M0 0 C3 1 3 1 4.1 3.3 C8.2 16.2 5.1 29.9 0 42 C-1.3 42 -2.6 42 -4 42 C-9 31.2 -10 19.4 -6 8.1 C-4.4 4.8 -2.7 2.5 0 0 Z M-2 4 C-7.4 13.9 -8.2 24.2 -5.6 35 C-4.9 37.4 -3.8 39.2 -2 41 C3.8 30.7 5 19.7 4 8 C3.3 7 2.7 6 2 5 C1 7.6 0 10.3 -1 13 C-1 10 -1 7.1 -1 4 C-1.3 4 -1.7 4 -2 4 Z " transform="translate(416,148)"/><path d="M0 0 C4.8 -0.4 8.2 -0 12.4 2.6 C16.6 6.2 19.5 11.4 20 17 C18.3 18.2 18.3 18.2 16 19 C8.9 16.2 3.9 11.3 -0.2 5 C-1 3 -1 3 0 0 Z M1 1 C1.5 5.5 2.9 7.8 6 11 C13.9 17 13.9 17 18 17 C17.5 12.5 15.9 8.5 13 5 C9 2.2 5.9 1 1 1 Z " transform="translate(303,159)"/><path d="M0 0 C9.7 4.7 17.8 14.1 22 24 C21.7 26.3 21.7 26.3 21 28 C11 27.6 4.6 20.8 -2.4 14.4 C-2.7 14.1 -2.7 14.1 -4.3 12.7 C-4.9 12.1 -5.5 11.6 -6.1 11 C-6.3 10.8 -6.3 10.8 -7.6 9.6 C-10.5 6.3 -11 4.3 -11 0 C-7.4 -1.8 -3.8 -0.9 0 0 Z M-5 1 C-4.3 1.7 -3.5 2.4 -2.8 3.2 C-0.3 5.7 1.9 8.2 4 11 C3.4 10.6 2.8 10.2 2.2 9.8 C1.4 9.2 0.6 8.7 -0.2 8.1 C-1 7.6 -1.8 7.1 -2.6 6.5 C-4.7 5.2 -6.8 4.1 -9 3 C-7.5 8.2 -4.3 11 -0.4 14.5 C0.2 15.1 0.8 15.6 1.4 16.2 C6.5 20.9 12 25.6 19 27 C19.7 25.3 19.7 25.3 20 23 C18.1 19.4 15.5 16.2 13 13 C12.4 12.2 11.8 11.5 11.3 10.7 C7.5 6.1 3.7 2.9 -2 1 C-3 1 -4 1 -5 1 Z " transform="translate(448,163)"/><path d="M0 0 C3.9 0.5 5.4 2.1 7.8 5.1 C12.2 11.6 12 18.4 11 26 C10.3 27 9.7 28 9 29 C8.9 32.6 9 36.1 9.1 39.7 C9 42.8 8.8 44.5 7 47 C4.6 47.8 4.6 47.8 2 47 C-2 39.3 -3.4 29.7 -3 21 C-2.7 20.3 -2.3 19.7 -2 19 C-0.7 19 0.6 19 2 19 C1.9 18.5 1.7 17.9 1.6 17.4 C0.1 11.5 -0.2 6 0 0 Z M1 2 C1.6 8.7 2.2 15.3 3 22 C1.7 21.3 0.4 20.7 -1 20 C-1.3 28.7 -1.5 38.7 4 46 C4.5 45.8 4.5 45.8 7 45 C8.7 38.8 7.4 33.2 6 27 C7 27 8 27 9 27 C11.1 22.8 10.5 17.6 10 13 C8.1 8.1 5.3 5 1 2 Z " transform="translate(307,175)"/><path d="M0 0 C1 0.7 2 1.3 3 2 C3.4 3.9 3.4 3.9 3.3 6.1 C3.3 6.9 3.3 7.7 3.3 8.6 C3.3 9.4 3.3 10.3 3.2 11.2 C3.2 12 3.2 12.9 3.2 13.7 C3.2 18.6 2.8 23.2 2 28 C2.4 27.6 2.8 27.1 3.2 26.7 C3.7 26.1 4.3 25.6 4.8 25 C5.3 24.4 5.9 23.9 6.4 23.3 C8 22 8 22 11 22 C12.1 34.9 8.1 49.2 1 60 C-1.2 61.8 -1.2 61.8 -3 63 C-5.5 59.3 -5.3 56.4 -5.2 52.1 C-5.2 51.4 -5.2 50.7 -5.2 50 C-5.2 46.2 -4.9 42.7 -4 39 C-5.3 39.7 -6.6 40.3 -8 41 C-12 36.6 -11.5 32.5 -11.4 26.9 C-10.5 17.3 -7.7 8.7 -2 1 C-1.3 0.7 -0.7 0.3 0 0 Z M-3 5 C-7.7 14.8 -11.4 25 -10 36 C-9.3 37 -8.7 38 -8 39 C-4.3 37.8 -4.1 37 -2.4 33.6 C1.8 24.7 2.3 15.8 2 6 C-0.2 8.2 -0.5 9.2 -1.1 12.1 C-1.4 13.4 -1.7 14.7 -2 16 C-2 12.4 -2 8.7 -2 5 C-2.3 5 -2.7 5 -3 5 Z M5 27 C-1.8 35.1 -4.4 44.6 -4.3 55.1 C-3.9 57.3 -3.1 59 -2 61 C2.7 55.6 4.7 49.7 7 43 C7.1 42.6 7.1 42.6 7.8 40.8 C9 36.9 9.2 33.2 9 29 C6.9 31.6 5.5 34 4 37 C4.7 33.7 5.3 30.4 6 27 C5.7 27 5.3 27 5 27 Z " transform="translate(427,174)"/><path d="M0 0 C3.5 0.4 5.3 1.2 7.9 3.6 C13.9 11.2 14.5 21 14.4 30.2 C14.4 31 14.4 31.8 14.4 32.6 C14.3 34.5 14.3 36.5 14.3 38.4 C12.5 39.1 12.5 39.1 10.3 39.4 C1.8 31.6 -3.3 15.7 -3.9 4.5 C-3.6 0.5 -3.6 0.5 0 0 Z M-0.7 1.4 C1.3 5.3 3.3 9.3 5.3 13.4 C4.5 12.3 4.5 12.3 0.7 7.1 C0.3 6.5 -0.2 6 -0.7 5.4 C-1 5.4 -1.3 5.4 -1.7 5.4 C-1.1 17 3.5 28 10.3 37.4 C11 37.7 11.6 38 12.3 38.4 C16.1 30.7 12.7 18.2 10.3 10.4 C7.8 6.1 5.8 3.5 1.3 1.4 C0.7 1.4 -0 1.4 -0.7 1.4 Z " transform="translate(447.7,182.6)"/><path d="M0 0 C1 0 2 0 3 0 C3.9 9.4 -0.1 18.7 -6 26 C-7 26.3 -8 26.7 -9 27 C-10.6 25.4 -10.2 23.8 -10.3 21.6 C-10.2 14.6 -8.3 8 -3.3 2.9 C-2.5 2.3 -1.8 1.7 -1 1 C-0.7 0.7 -0.3 0.3 0 0 Z M-0.5 2.4 C-6 8.3 -9.1 13.9 -9.2 22.1 C-9.1 23 -9.1 24 -9 25 C-2.6 20.5 -0 14 1.5 6.4 C1.8 4.6 1.9 2.8 2 1 C1 1 1 1 -0.5 2.4 Z " transform="translate(300,185)"/><path d="M0 0 C2.9 0.2 3.9 0.9 6 3 C12 12 13.2 19.9 12.7 30.5 C12.7 31.4 12.6 32.4 12.6 33.3 C12.4 38.1 11.9 41.6 10 46 C11.9 48.3 11.9 48.3 14 50 C13.7 50.7 13.3 51.3 13 52 C11.7 51 10.4 49.9 9.1 48.9 C8.8 48.6 8.8 48.6 6.9 47.1 C4.6 44.5 3.9 42.4 3 39 C2.7 38 2.3 37 2 36 C-6.1 11.1 -6.1 11.1 -1 1 C-0.7 0.7 -0.3 0.3 0 0 Z M-1 3 C-1.5 16.3 -0.7 30.1 6 42 C7 42.7 8 43.3 9 44 C11.3 38.4 11.4 33.2 11.4 27.2 C11.4 26.3 11.4 25.3 11.4 24.3 C11.3 17.4 10.6 11.5 6 6 C5.7 6 5.3 6 5 6 C5 9.6 5 13.3 5 17 C4.7 16.1 4.5 15.1 4.2 14.2 C3.8 13 3.5 11.8 3.1 10.6 C2.8 9.4 2.4 8.2 2.1 6.9 C1 4 1 4 -1 3 Z M4 4 C5 6 5 6 5 6 Z " transform="translate(443,207)"/><path d="M0 0 C1 0 2 0 3 0 C4.7 2.6 5 3.9 5 7 C-2.2 7.8 -8.8 8.1 -16 7 C-16 6.7 -16 6.3 -16 6 C-14.5 5.8 -14.5 5.8 -7 5 C-7 4.7 -7 4.3 -7 4 C-6.2 3.9 -5.4 3.8 -4.6 3.6 C-3.7 3.4 -2.9 3.2 -2 3 C-1.7 2.3 -1.3 1.7 -1 1 C-0.7 0.7 -0.3 0.3 0 0 Z " transform="translate(440,298)"/></g><g fill="#1a5626"><path d="M0 0 C0.5 0.1 0.5 0.1 2.7 0.5 C6.7 1.3 9.2 1.8 12.6 4.1 C13.5 6.5 13.5 6.5 13.6 9.1 C9.1 13.3 3.4 13.3 -2.4 14.1 C-3.3 14.2 -4.2 14.3 -5.2 14.4 C-11.9 15.1 -18.7 15.2 -25.6 15.2 C-26 15.3 -26 15.3 -28.4 15.3 C-29.3 15.3 -30.2 15.3 -31.1 15.3 C-31.5 15.3 -31.5 15.3 -33.5 15.3 C-35.4 15.1 -35.4 15.1 -37.4 13.1 C-37.3 10.3 -37.3 10.3 -36.7 7.1 C-36.5 6.1 -36.3 5 -36.1 3.9 C-35.4 1.1 -35.4 1.1 -33.4 -1.9 C-24.4 -5.8 -9.3 -1.7 0 0 Z M-32.4 -0.9 C-35.3 3.8 -35.9 7.6 -35.4 13.1 C-33.7 14.8 -31.3 14.2 -28.9 14.2 C-21.9 14.2 -15 13.7 -8 13.2 C-7 13.1 -5.9 13 -4.9 12.9 C0.5 12.5 5.5 12 10.6 10.1 C11.5 7.4 11.5 7.4 11.6 5.1 C0.5 -0.2 -12.3 -1.2 -24.4 -1.6 C-25.2 -1.6 -26 -1.7 -26.7 -1.7 C-28.9 -1.7 -28.9 -1.7 -32.4 -0.9 Z " transform="translate(72.4,187.9)"/><path d="M0 0 C0.6 0.1 0.6 0.1 3.6 0.5 C14.5 2.1 14.5 2.1 19 5.1 C20.1 7.6 20.1 7.6 20 10.1 C18.5 12.9 16.8 13.2 13.8 14.1 C7.3 15.7 0.7 16.1 -5.9 16.6 C-6.3 16.7 -6.3 16.7 -8.1 16.8 C-21 17.9 -33.9 18.7 -46.9 19.3 C-47.3 19.3 -47.3 19.3 -49.5 19.4 C-75.7 20.7 -75.7 20.7 -86 19.1 C-86.6 16.8 -86.6 16.8 -87 14.1 C-80.5 7.6 -60 8.8 -50.9 7.8 C-48.5 7.5 -46.1 7.3 -43.7 7 C-43 7 -42.2 6.9 -41.5 6.8 C-38.5 6.5 -35.9 6.1 -33 5.1 C-32 2.8 -31 0.5 -30 -1.9 C-22.6 -5.6 -7.9 -1.1 0 0 Z M-29 -0.9 C-30.9 2.5 -30.9 2.5 -32 6.1 C-36.8 8.4 -41.9 8.7 -47.1 9.1 C-48 9.2 -48.8 9.3 -49.7 9.4 C-52.4 9.6 -55.2 9.9 -57.9 10.1 C-61.6 10.5 -65.2 10.8 -68.8 11.1 C-69.6 11.2 -70.4 11.3 -71.3 11.3 C-76.1 11.8 -80.5 12.4 -85 14.1 C-85.3 15.1 -85.7 16.1 -86 17.1 C-81.3 19.5 -74.4 18.4 -69.2 18.4 C-68.4 18.4 -67.7 18.4 -66.9 18.4 C-53 18.4 -39.2 17.7 -25.3 16.8 C-24.4 16.7 -23.4 16.6 -22.4 16.6 C-13.3 15.9 -4.2 15.2 5 14.2 C6.2 14.1 7.4 13.9 8.7 13.8 C12.3 13.1 14.9 12.1 18 10.1 C18 8.8 18 7.5 18 6.1 C11.8 2.3 4.4 1.9 -2.7 0.9 C-3.3 0.8 -3.3 0.8 -6.3 0.4 C-22.9 -1.9 -22.9 -1.9 -29 -0.9 Z " transform="translate(121,200.9)"/><path d="M0 0 C6.5 0.1 12.8 0.8 19.2 1.6 C20.2 1.7 21.2 1.9 22.1 2 C31.2 3.2 31.2 3.2 34.8 6.3 C35.4 8.4 35.4 8.4 35.8 10.3 C36 10.3 36 10.3 37.5 10.3 C47.6 10 57.5 9.9 67.4 11.6 C68.1 11.7 68.8 11.9 69.6 12 C73.1 12.7 75.6 13.3 77.8 16.3 C78.2 18.8 78.2 18.8 77.8 21.3 C74 25 70.2 26.3 65.2 27.4 C64.4 27.5 63.6 27.7 62.8 27.9 C19.4 36.4 -26.4 36.3 -70.5 38.9 C-72.6 39 -74.7 39.1 -76.7 39.2 C-79.3 39.4 -81.8 39.5 -84.3 39.7 C-90.5 40.1 -96.7 40.5 -102.8 41.1 C-114.3 42.1 -114.3 42.1 -119.2 38.3 C-118.6 36.4 -118.6 36.4 -117.2 34.3 C-113.7 33.3 -110.2 33.2 -106.5 33.1 C-105.3 33.1 -104.1 33.1 -102.8 33.1 C-102.2 33.1 -101.5 33.1 -100.8 33 C-83.2 32.7 -65.6 31.7 -48 30.5 C-47.3 30.5 -46.7 30.4 -46 30.4 C-26.2 29.1 -6.5 27.4 13.2 25.1 C20.4 24.3 27.5 23.8 34.8 23.3 C34.8 19.7 34.8 16.1 34.8 12.3 C33.9 12.8 33 13.3 32.2 13.7 C28.6 15.4 25.9 15.9 22.1 16.3 C21.4 16.4 20.8 16.5 20.1 16.6 C17.9 16.8 15.7 17 13.6 17.2 C12 17.4 10.4 17.6 8.9 17.7 C-13.4 20.1 -35.9 21.7 -58.2 23.3 C-59.1 23.4 -59.9 23.4 -60.7 23.5 C-73.6 24.4 -86.4 24.4 -99.4 24.4 C-101.4 24.4 -103.5 24.4 -105.5 24.4 C-110.4 24.4 -115.3 24.3 -120.2 24.3 C-120.2 23 -120.2 21.7 -120.2 20.3 C-115.5 18.8 -111.2 18 -106.2 17.5 C-105.9 17.5 -105.9 17.5 -104.2 17.3 C-102.7 17.2 -101.3 17.1 -99.8 16.9 C-97.5 16.7 -95.2 16.5 -92.9 16.3 C-87.1 15.8 -81.4 15.2 -75.6 14.7 C-41.2 11.6 -41.2 11.6 -24.2 9.4 C-23.1 9.3 -21.9 9.1 -20.7 9 C-12.2 7.8 -12.2 7.8 -9.1 4.8 C-8.8 4.4 -8.8 4.4 -7.2 2.3 C-4.7 -0.3 -3.6 0 0 0 Z M-6.9 4.2 C-7.3 4.7 -7.3 4.7 -9.2 7.3 C-13.3 9 -17.2 9.7 -21.4 10.3 C-22 10.4 -22 10.4 -25.1 10.8 C-26.4 10.9 -27.7 11.1 -29 11.2 C-29.7 11.3 -30.4 11.4 -31.1 11.5 C-47.2 13.5 -63.4 15 -79.6 16.4 C-84.6 16.9 -89.5 17.3 -94.5 17.8 C-96.4 17.9 -98.3 18.1 -100.3 18.3 C-106.8 18.9 -112.9 19.7 -119.2 21.3 C-118.9 22 -118.6 22.6 -118.2 23.3 C-115.7 23.6 -115.7 23.6 -112.1 23.6 C-111.8 23.6 -111.8 23.6 -110.2 23.6 C-108 23.6 -105.8 23.6 -103.6 23.6 C-102.9 23.6 -102.1 23.6 -101.3 23.6 C-69.4 23.5 -37.6 20.5 -5.9 17.8 C-5.3 17.7 -5.3 17.7 -2.3 17.4 C1.2 17.1 4.7 16.8 8.2 16.5 C9.2 16.4 10.2 16.3 11.3 16.2 C27.5 14.7 27.5 14.7 33.8 11.3 C33.5 8.9 33.5 8.9 32.8 6.3 C25.1 2 13.4 2.1 4.8 1.3 C4.3 1.3 4.3 1.3 1.8 1 C-2.5 0.7 -3.9 0.9 -6.9 4.2 Z M35.8 12.3 C35.8 16.3 35.8 20.2 35.8 24.3 C34.9 24.4 34.9 24.4 30.8 24.7 C25.8 25.1 20.9 25.6 16 26.2 C-28 31.2 -72.1 33.3 -116.2 35.3 C-116.2 36.6 -116.2 38 -116.2 39.3 C-109.1 40.7 -102.3 40 -95.2 39.3 C-77.5 37.7 -59.9 36.7 -42.2 35.6 C-20.6 34.4 1 33 22.6 31.2 C23.6 31.2 24.5 31.1 25.5 31 C70 27.4 70 27.4 75.5 21.3 C76.8 19.3 76.8 19.3 76.3 17.2 C73 13.3 67.6 13 62.8 12.3 C60.6 12.2 58.4 12.2 56.3 12.2 C55.1 12.2 53.9 12.2 52.6 12.2 C51.4 12.2 50.2 12.2 48.9 12.2 C47.6 12.3 46.4 12.3 45.1 12.3 C42 12.3 38.9 12.3 35.8 12.3 Z " transform="translate(152.2,212.7)"/><path d="M0 0 C3.4 0.1 6.7 0.4 10 0.7 C12.6 0.9 15.2 1 17.8 1.2 C24.8 1.5 30.2 1.9 36 6 C37.3 8.4 37.3 8.4 37 11 C33.2 16 28.4 18.4 22.3 19.5 C19.1 19.9 15.9 20.2 12.6 20.5 C11.5 20.7 10.3 20.8 9 20.9 C5.4 21.3 1.7 21.7 -2 22 C-3 22.1 -4.1 22.2 -5.2 22.3 C-12.6 23 -20 23.6 -27.4 24.2 C-28.6 24.3 -29.8 24.4 -31 24.6 C-59 26.9 -87 28.8 -115.1 30.8 C-115.6 30.8 -115.6 30.8 -118.5 31 C-125 31.4 -131.5 31.9 -138.1 32.3 C-140.1 32.5 -142.1 32.6 -144.1 32.8 C-153.8 33.4 -163.5 34.1 -173.3 34.6 C-174 34.6 -174.8 34.7 -175.5 34.7 C-180.8 35 -186.2 35.1 -191.5 35.2 C-191.9 35.2 -191.9 35.2 -193.6 35.2 C-197.3 35.2 -198.8 35.1 -202 33 C-201.7 32 -201.3 31 -201 30 C-198.1 28.5 -195 28.6 -191.8 28.4 C-191.4 28.4 -191.4 28.4 -189.5 28.2 C-186.9 28 -184.3 27.9 -181.7 27.7 C-181.2 27.7 -181.2 27.7 -178.9 27.5 C-165.7 26.6 -152.6 25.8 -139.4 25.1 C-137.9 25 -136.5 24.9 -135 24.8 C-134.3 24.8 -133.5 24.7 -132.8 24.7 C-97.9 22.7 -63 20.7 -28.3 16.4 C-27.5 16.3 -26.6 16.2 -25.8 16.1 C-11.2 14.1 -11.2 14.1 -6.3 9.3 C-6 8.8 -6 8.8 -4.4 6.4 C-3.8 5.4 -3.2 4.4 -2.5 3.4 C-2 2.6 -1.5 1.8 -1 1 C-0.7 0.7 -0.3 0.3 0 0 Z M-1.7 3.3 C-2.1 4.2 -2.5 5.1 -3 6 C-6.5 11.6 -9 14.2 -15.5 15.9 C-16.8 16.1 -18.2 16.3 -19.5 16.5 C-19.9 16.6 -19.9 16.6 -21.8 16.9 C-31.1 18.4 -40.4 19.4 -49.8 20.3 C-50.8 20.4 -51.9 20.5 -52.9 20.6 C-90.3 24.2 -127.9 26 -165.4 28.1 C-170.6 28.4 -175.8 28.7 -181 29 C-181.4 29 -181.4 29 -183.3 29.1 C-185.4 29.3 -187.5 29.4 -189.6 29.5 C-190.7 29.6 -191.9 29.7 -193.1 29.7 C-195.5 30 -197.7 30.3 -200 31 C-200 31.7 -200 32.3 -200 33 C-172.1 33.8 -144.5 31.7 -116.7 29.6 C-112.8 29.4 -109 29.1 -105.2 28.8 C-74.7 26.7 -44.2 24.4 -13.7 21.9 C-11.6 21.7 -9.4 21.5 -7.3 21.3 C-3.3 21 0.6 20.7 4.6 20.3 C5.1 20.3 5.1 20.3 7.9 20.1 C28.7 18.2 28.7 18.2 35 12 C35.1 9.4 35.1 9.4 34 7 C28.6 1.8 20.5 2.3 13.5 1.6 C12.4 1.5 11.2 1.4 10 1.2 C1.7 0.4 1.7 0.4 -1.7 3.3 Z " transform="translate(235,234)"/><path d="M0 0 C3.2 1.4 4.6 2.1 6.1 5.4 C6 8 6 8 4.7 10.6 C-1.7 16.3 -10.4 17.8 -18.7 19 C-19.8 19.2 -20.9 19.3 -22 19.5 C-38.6 21.9 -55.3 23.4 -72 25 C-73.4 25.1 -74.7 25.3 -76.1 25.4 C-200.9 37.1 -200.9 37.1 -246 36 C-246.2 35.5 -246.2 35.5 -247 33 C-243.5 31.5 -240.7 30.7 -236.9 30.5 C-235.9 30.4 -234.8 30.4 -233.8 30.3 C-232.7 30.3 -231.6 30.2 -230.4 30.1 C-229.2 30.1 -228.1 30 -226.8 29.9 C-224.2 29.8 -221.6 29.6 -219 29.5 C-211.8 29.1 -204.6 28.6 -197.4 28.2 C-196.6 28.2 -195.9 28.1 -195.1 28.1 C-175.2 26.9 -155.2 25.4 -135.3 24 C-134.9 24 -134.9 24 -132.6 23.8 C-77.1 19.8 -77.1 19.8 -50 17 C-48.7 16.9 -47.5 16.7 -46.1 16.6 C-42.9 16.3 -39.6 15.9 -36.3 15.5 C-35.5 15.4 -34.6 15.3 -33.8 15.2 C-25.5 14.1 -17.4 11.7 -12 5 C-11 3.3 -10 1.7 -9 0 C-5.8 -1.6 -3.4 -0.7 0 0 Z M-9.3 2.6 C-10.1 4.1 -10.9 5.5 -11.7 7 C-15.4 12.8 -23.7 14.5 -30 16 C-35.3 16.8 -40.6 17.4 -46 18 C-47.6 18.1 -49.2 18.3 -50.8 18.5 C-68.9 20.4 -87 21.8 -105.2 23.2 C-108 23.4 -110.9 23.7 -113.8 23.9 C-146.4 26.4 -179 28.5 -211.7 30.3 C-214.3 30.5 -216.9 30.6 -219.5 30.8 C-222.7 31 -225.9 31.1 -229 31.3 C-230.4 31.4 -231.9 31.5 -233.3 31.5 C-233.9 31.6 -233.9 31.6 -236.9 31.7 C-239.4 32 -241.6 32.3 -244 33 C-244 33.7 -244 34.3 -244 35 C-225.5 35.2 -207.2 34.7 -188.7 33.4 C-187.4 33.4 -186.2 33.3 -184.9 33.2 C-149.2 30.8 -113.6 27.5 -78 24.2 C-75 23.9 -72 23.6 -69 23.4 C-53 21.9 -37.1 20.3 -21.2 18 C-20.2 17.9 -19.2 17.7 -18.2 17.6 C-1.7 15 -1.7 15 2.8 10 C4 8 4 8 3.9 5.4 C3 3 3 3 1.4 1.7 C-6.7 -0.6 -6.7 -0.6 -9.3 2.6 Z " transform="translate(285,245)"/><path d="M0 0 C2.9 1 5.6 2.1 8 4 C8.8 6 8.8 6 9 8 C6.8 13 3.3 16 -1.8 18.2 C-10.6 20.8 -19.4 22.5 -28.5 24 C-29.3 24.1 -30.1 24.2 -30.9 24.4 C-47.9 27.1 -65 29.2 -82.1 31 C-84.6 31.3 -87.1 31.5 -89.6 31.8 C-99.8 32.9 -109.9 34 -120 35 C-126.2 35.7 -132.4 36.4 -138.6 37 C-150.8 38.3 -163 39.6 -175.2 40.9 C-179.5 41.3 -183.8 41.8 -188.1 42.2 C-242.4 48 -242.4 48 -257 46 C-259 44 -259 44 -259.1 42 C-258 40 -258 40 -255 38.9 C-250.8 37.9 -246.7 37.4 -242.5 37.1 C-241.6 37 -240.8 37 -239.9 36.9 C-238.1 36.7 -236.3 36.6 -234.5 36.4 C-230.6 36.1 -226.7 35.7 -222.8 35.4 C-220.7 35.2 -218.6 35 -216.5 34.8 C-205.2 33.8 -193.9 32.8 -182.5 31.7 C-181.5 31.6 -180.5 31.5 -179.4 31.4 C-103.7 24.2 -103.7 24.2 -67.3 19.9 C-65.2 19.6 -63.2 19.4 -61.1 19.1 C-19.3 14.2 -19.3 14.2 -11 7 C-9.6 3.8 -9.6 3.8 -9 1 C-5.9 -0.6 -3.5 -0.3 0 0 Z M-8.4 3.7 C-9.1 5.1 -9.9 6.5 -10.7 8 C-14.5 13.8 -23.5 14.8 -29.8 16.2 C-39 18.1 -48.4 19 -57.8 20.1 C-58.9 20.3 -60.1 20.4 -61.4 20.6 C-107.6 26.2 -154.1 30.8 -200.5 34.8 C-200.9 34.9 -200.9 34.9 -202.9 35 C-210.4 35.7 -218 36.4 -225.5 37 C-227.5 37.1 -229.5 37.3 -231.6 37.5 C-234 37.7 -236.4 37.9 -238.9 38.1 C-245.1 38.6 -251 39.5 -257 41 C-257 42 -257 43 -257 44 C-243.8 50.6 -217.7 43.9 -203.6 42.4 C-200.9 42.1 -198.2 41.8 -195.5 41.5 C-189.8 41 -184.2 40.4 -178.5 39.8 C-170.7 39 -162.9 38.2 -155.1 37.4 C-128.3 34.6 -101.5 31.8 -74.7 28.8 C-74.2 28.7 -74.2 28.7 -71.5 28.4 C-3.3 20.8 -3.3 20.8 5.9 11.5 C7 10 7 10 7.8 7.3 C7 5 7 5 5.1 3.2 C0.8 1.5 -5 -0.4 -8.4 3.7 Z " transform="translate(301,256)"/><path d="M0 0 C6.1 0.6 10.9 3 15.9 6.4 C17.1 9.3 17.1 10.9 16.1 13.9 C6 25.4 -16.7 26.6 -31.1 29.2 C-32.1 29.4 -33.1 29.6 -34.1 29.8 C-101.2 42 -168.6 51.8 -236 62 C-257.3 65.2 -257.3 65.2 -260.4 65.8 C-262.5 66.1 -262.5 66.1 -266.1 65.4 C-268.7 62.7 -270.4 59.7 -272.1 56.4 C-272.4 55.7 -272.7 55.1 -273.1 54.5 C-275.1 50.4 -275.8 46.8 -275.1 42.4 C-271.6 40.5 -268.3 40 -264.4 39.6 C-263.3 39.5 -262.2 39.4 -261 39.3 C-259.8 39.1 -258.6 39 -257.4 38.9 C-256.2 38.8 -254.9 38.6 -253.6 38.5 C-242.1 37.3 -230.5 36.3 -219 35.3 C-214.1 34.8 -209.2 34.4 -204.3 34 C-201.7 33.7 -199.1 33.5 -196.5 33.3 C-118.4 26.3 -118.4 26.3 -79.8 22.2 C-77.5 21.9 -75.3 21.7 -73 21.5 C-59.5 20.1 -46.1 18.5 -32.7 16.3 C-31.8 16.2 -30.8 16 -29.9 15.9 C-12.4 12.9 -12.4 12.9 -7.1 8.4 C-5.9 5.3 -5.9 5.3 -5.1 2.4 C-3.1 0.4 -3.1 0.4 0 0 Z M-4.1 3.4 C-4.4 4.5 -4.8 5.6 -5.2 6.8 C-6.1 9.1 -6.7 10.2 -8.9 11.5 C-22.4 17.2 -37 18.6 -51.4 20.3 C-51.8 20.3 -51.8 20.3 -53.6 20.6 C-68.7 22.4 -83.8 24 -98.9 25.6 C-100.3 25.7 -101.7 25.8 -103 26 C-137.1 29.5 -171.2 32.5 -205.4 35.5 C-215.1 36.4 -224.8 37.3 -234.5 38.1 C-237 38.4 -239.5 38.6 -242 38.8 C-245.7 39.1 -249.5 39.5 -253.2 39.8 C-255.1 40 -257 40.2 -258.9 40.3 C-260.1 40.5 -261.2 40.6 -262.4 40.7 C-263.3 40.8 -264.3 40.8 -265.3 40.9 C-268.4 41.4 -271.1 42.3 -274.1 43.4 C-273.6 48.7 -272.3 52.6 -269.8 57.2 C-269.2 58.4 -268.6 59.5 -268 60.7 C-266.1 63.4 -266.1 63.4 -264 64.1 C-259.7 64.5 -255.6 63.8 -251.3 63.1 C-250.3 63 -249.3 62.8 -248.3 62.7 C-245 62.2 -241.7 61.6 -238.4 61.1 C-236.1 60.8 -233.7 60.4 -231.4 60.1 C-225.6 59.2 -219.9 58.3 -214.2 57.4 C-209.6 56.7 -204.9 56 -200.3 55.3 C-163.2 49.6 -126.2 43.7 -89.2 37.7 C-85.9 37.2 -82.7 36.7 -79.4 36.1 C-59.4 32.9 -39.3 29.6 -19.4 25.6 C-18.7 25.5 -18 25.4 -17.2 25.2 C7.6 20.4 7.6 20.4 14.9 13.4 C15.9 10.4 15.9 10.4 14.9 7.4 C9.6 3.1 2.1 -0.7 -4.1 3.4 Z " transform="translate(323.1,269.6)"/><path d="M0 0 C4.6 0.4 7.5 2 10.8 5.3 C11.2 8.1 11.2 8.1 10.8 11.3 C1.8 22.6 -18.4 24.2 -31.9 27.3 C-32.7 27.5 -33.5 27.7 -34.4 27.9 C-57.6 33.2 -80.8 38 -104.1 42.9 C-112 44.6 -119.9 46.3 -127.7 47.9 C-128.4 48.1 -129.1 48.2 -129.7 48.3 C-133 49 -136.3 49.7 -139.5 50.4 C-143.4 51.2 -147.3 52 -151.1 52.9 C-256.8 75.2 -256.8 75.2 -269.2 79.3 C-278.8 80.3 -278.8 80.3 -283.1 77.2 C-283.8 76.2 -284.5 75.3 -285.2 74.3 C-286 73.4 -286.7 72.4 -287.5 71.4 C-289.5 67.7 -289.9 65.5 -289.2 61.3 C-285.9 59.6 -282.7 58.9 -279 58.4 C-278 58.3 -276.9 58.1 -275.9 58 C-275.3 57.9 -275.3 57.9 -272.4 57.5 C-270.4 57.2 -268.5 56.9 -266.6 56.6 C-264.4 56.3 -262.3 56 -260.2 55.7 C-221.9 50.2 -183.8 43.9 -145.7 37.5 C-142.8 37 -139.9 36.5 -137 36 C-120.2 33.2 -103.3 30.4 -86.5 27.6 C-81.7 26.7 -77 25.9 -72.2 25.1 C-66.9 24.3 -61.6 23.4 -56.3 22.4 C-54.4 22.1 -52.5 21.8 -50.6 21.5 C-41.2 19.9 -32 18.2 -22.8 15.8 C-22 15.6 -21.2 15.5 -20.4 15.3 C-15 13.8 -10 12 -6.8 7.2 C-6.6 6.9 -6.6 6.9 -5.9 5.1 C-3.8 0.4 -3.8 0.4 0 0 Z M-2.2 1.3 C-4.8 4 -5 6.5 -5.7 10.1 C-9.6 15.9 -21.4 16.7 -27.8 18.2 C-28.9 18.5 -30 18.8 -31.1 19 C-42.3 21.6 -53.5 23.6 -64.8 25.5 C-67 25.9 -69.3 26.3 -71.5 26.7 C-77.4 27.7 -83.3 28.6 -89.2 29.6 C-92.9 30.3 -96.6 30.9 -100.3 31.5 C-152.9 40.4 -205.6 49 -258.4 57 C-259.3 57.2 -260.2 57.3 -261.2 57.4 C-265.6 58.1 -269.9 58.8 -274.3 59.4 C-275.9 59.7 -277.4 59.9 -279 60.1 C-279.7 60.2 -280.4 60.3 -281.1 60.5 C-286 61.2 -286 61.2 -288.2 62.3 C-287.9 68.7 -285.6 72.8 -281.2 77.3 C-273.4 79.9 -266.1 77.2 -258.4 75.2 C-255.9 74.5 -253.4 73.9 -250.8 73.2 C-250.2 73.1 -249.5 72.9 -248.9 72.7 C-238.1 70 -227.1 67.7 -216.2 65.3 C-214.3 64.9 -212.3 64.5 -210.3 64 C-191 59.8 -171.6 55.7 -152.2 51.6 C-151 51.4 -149.8 51.1 -148.6 50.8 C-136.6 48.3 -124.6 45.8 -112.7 43.3 C-91 38.8 -69.3 34.2 -47.7 29.3 C-46.9 29.1 -46.1 29 -45.2 28.8 C3.6 17.8 3.6 17.8 8.7 12.3 C9.8 10.3 9.8 10.3 9.8 7.8 C8.6 4.7 7.7 3.8 4.8 2.3 C1.2 1.5 1.2 1.5 -2.2 1.3 Z " transform="translate(354.2,283.7)"/><path d="M0 0 C3.6 0.3 3.6 0.3 6.1 1.4 C7.6 3.3 7.6 3.3 8.2 6.2 C7.4 10.4 5.8 11.6 2.6 14.3 C-0.6 15.9 -0.6 15.9 -4.2 17.3 C-4.5 17.4 -4.5 17.4 -6.2 18.1 C-13.4 20.8 -20.7 23.1 -28.1 25.3 C-28.4 25.4 -28.4 25.4 -30.3 26 C-66.6 37 -103.4 46.3 -140.4 54.6 C-174.2 62.3 -174.2 62.3 -183.4 69.3 C-184.2 69.9 -185 70.5 -185.8 71.1 C-188.3 74.6 -188.9 78 -188.4 82.3 C-185.4 89 -179.5 92.7 -173.4 96.3 C-174.4 95.3 -174.4 95.3 -177.2 93.2 C-180.7 90.3 -182.5 87.5 -184.4 83.3 C-184.6 80.2 -184.6 80.2 -183.4 77.3 C-175.9 69.3 -163.8 67 -153.7 64.1 C-152.7 63.8 -151.6 63.5 -150.6 63.2 C-138 59.6 -125.4 56.4 -112.8 53.2 C-78.5 44.5 -44.1 35.8 -10.7 24.1 C-6.9 22.8 -3.2 21.6 0.6 20.3 C-2.5 23.7 -6.1 25 -10.4 26.5 C-11.3 26.8 -12.1 27.1 -13 27.4 C-46 39.1 -80.2 47.4 -114 56.1 C-115.2 56.4 -116.4 56.7 -117.7 57 C-123.4 58.5 -129.2 60 -135 61.4 C-145.1 64 -155.1 66.7 -165.1 70 C-165.9 70.2 -166.8 70.5 -167.7 70.8 C-172.4 72.4 -176.4 74.1 -180.4 77.3 C-181.7 81.4 -181.8 83.4 -180.1 87.4 C-170.5 97.8 -154.8 101.7 -141.6 105.5 C-140.3 105.9 -139 106.3 -137.7 106.7 C-133.6 107.9 -129.5 109.1 -125.4 110.3 C-124 110.7 -122.7 111.1 -121.3 111.5 C-111.2 114.4 -101.1 117.4 -91 120.3 C-86.9 121.5 -82.8 122.7 -78.7 123.8 C-76.8 124.4 -75 124.9 -73.1 125.5 C-67.4 127.1 -61.8 128.8 -56.2 130.8 C-48.4 133.2 -39.5 129.9 -32.5 126.4 C-22.1 120.7 -12.6 113.7 -3.4 106.3 C-9.4 103.8 -15.6 102.2 -21.9 100.6 C-55.1 92.4 -55.1 92.4 -65.4 79.3 C-65.7 78.9 -65.7 78.9 -67.4 76.8 C-68.8 73.2 -69.3 70.1 -68.4 66.3 C-64.3 60 -58.9 56.4 -52.2 53.1 C-51.4 52.7 -50.5 52.2 -49.6 51.8 C-37 45.5 -24.2 39.8 -11.4 34.3 C-10.4 33.9 -9.4 33.5 -8.4 33 C-7.5 32.6 -6.6 32.3 -5.7 31.9 C-5.3 31.7 -5.3 31.7 -3.4 30.9 C-1.4 30.3 -1.4 30.3 1.6 31.3 C0.5 31.8 -0.6 32.3 -1.7 32.8 C-6 34.7 -10.2 36.6 -14.4 38.5 C-16.2 39.3 -18 40.1 -19.9 40.9 C-29.6 45.3 -39.2 49.7 -48.9 54.2 C-49.7 54.5 -50.4 54.9 -51.2 55.3 C-56.6 57.8 -61.9 60.4 -65.4 65.3 C-66.6 68.8 -67 70.8 -65.6 74.2 C-63.9 77.5 -62.4 79.3 -59.4 81.3 C-59.7 80.3 -60 79.3 -60.2 78.2 C-60.4 73.4 -59.3 72.5 -56.2 69 C-53.3 66.3 -50.3 64.5 -46.9 62.7 C-46.1 62.3 -45.4 61.9 -44.6 61.5 C-33.4 55.5 -21.5 50.7 -9.8 45.8 C-5.6 44 -1.5 42.1 2.5 40.1 C3.2 39.8 3.9 39.6 4.6 39.3 C5.3 39.6 5.9 40 6.6 40.3 C-3.2 45.5 -13.2 50 -23.4 54.2 C-31.4 57.6 -39.3 61 -46.9 65.3 C-47.5 65.7 -48.1 66 -48.8 66.4 C-52.7 68.7 -56.3 71.1 -58.3 75.2 C-58.4 78.7 -57.3 80.4 -55.4 83.3 C-50.7 86.9 -45.5 89.3 -39.9 91.1 C-39.1 91.4 -38.4 91.6 -37.7 91.8 C-24.5 96 -10.8 99.1 2.6 102.3 C2.3 103 2 103.6 1.6 104.3 C1 104.3 0.3 104.3 -0.4 104.3 C-0.5 104.6 -0.5 104.6 -1.3 106.1 C-4.9 113.4 -15.2 118.3 -21.9 122.6 C-22.7 123.1 -23.5 123.6 -24.3 124.1 C-32.8 129.4 -40.5 133.5 -50.6 133.4 C-51.7 133.4 -52.8 133.4 -53.9 133.3 C-54.7 133.3 -55.5 133.3 -56.4 133.3 C-56 135 -55.7 136.6 -55.4 138.3 C-66.9 144.4 -79.3 148.1 -92.1 150.2 C-92.8 150.3 -93.5 150.4 -94.3 150.6 C-109 152.7 -121.3 150.5 -135.4 146.4 C-137.2 145.9 -139.1 145.4 -140.9 144.9 C-145.7 143.6 -150.5 142.2 -155.3 140.8 C-162.8 138.7 -170.4 136.6 -178 134.4 C-180.8 133.6 -183.6 132.8 -186.4 132 C-201.4 127.8 -216.4 123.8 -231.5 119.9 C-238.8 118.1 -246 116.2 -253.3 114.2 C-254.4 113.9 -255.4 113.6 -256.5 113.3 C-260.8 111.8 -264.1 109.6 -267.5 106.8 C-267.8 106.5 -267.8 106.5 -269.5 105.2 C-271.5 103.6 -273.4 102 -275.4 100.3 C-276 99.8 -276.5 99.3 -277.2 98.8 C-290.2 87.7 -290.2 87.7 -293.4 81.3 C-293.6 78.5 -293.6 78.5 -292.4 76.3 C-288 73.1 -283.4 72.1 -278.3 71 C-277.8 70.9 -277.8 70.9 -275.5 70.3 C-272.5 69.6 -269.5 68.9 -266.5 68.3 C-264.4 67.8 -262.2 67.3 -260.1 66.8 C-239 61.9 -217.7 57.3 -196.5 52.7 C-193.3 52 -190.1 51.4 -186.9 50.7 C-160.5 45 -134.1 39.4 -107.6 33.9 C-107 33.8 -107 33.8 -103.8 33.2 C-91.4 30.6 -79 28.1 -66.6 25.5 C-62 24.6 -57.4 23.7 -52.9 22.7 C-50.8 22.3 -48.6 21.9 -46.5 21.4 C-34.5 19 -22.9 16.3 -11.4 12.3 C-10.9 12.1 -10.9 12.1 -8.4 11.3 C-7.5 9.3 -7.5 9.3 -6.8 6.9 C-5 0.5 -5 0.5 0 0 Z M-4.4 3.3 C-4.7 4.6 -5.1 5.8 -5.4 7.1 C-6.8 10.9 -8.2 12.2 -11.8 13.9 C-17.4 16.5 -22.9 17.8 -29 19 C-30.8 19.4 -32.6 19.7 -34.5 20.1 C-36.6 20.5 -38.6 21 -40.7 21.4 C-45.8 22.4 -51 23.5 -56.1 24.5 C-57 24.7 -58 24.9 -59 25.1 C-60.9 25.6 -62.9 26 -64.9 26.4 C-70.2 27.5 -75.4 28.6 -80.7 29.7 C-213.4 57.4 -213.4 57.4 -267 69.8 C-268 70 -268.9 70.2 -269.9 70.5 C-272.5 71.1 -275 71.7 -277.6 72.3 C-278.3 72.4 -279 72.6 -279.8 72.8 C-284 73.8 -287.7 75.1 -291.4 77.3 C-291.7 78.3 -292 79.3 -292.4 80.3 C-287.4 88.1 -280.4 94.4 -273.4 100.3 C-272.4 101.2 -271.5 102 -270.5 102.9 C-260.1 111.8 -248.6 114.7 -235.5 117.8 C-229.5 119.2 -223.5 120.7 -217.5 122.2 C-215.4 122.8 -213.2 123.3 -211.1 123.8 C-193.6 128.2 -176.4 133.1 -159.1 138 C-154.1 139.4 -149.2 140.8 -144.3 142.2 C-140.6 143.2 -136.9 144.2 -133.2 145.3 C-119.6 149.1 -108.8 151.3 -94.8 149.1 C-94.4 149.1 -94.4 149.1 -92.2 148.7 C-80.2 146.8 -66.8 143.8 -56.4 137.3 C-56.4 136.7 -56.4 136 -56.4 135.3 C-72 130 -87.6 124.9 -103.4 120.2 C-104.1 120 -104.8 119.8 -105.5 119.5 C-110.6 118 -115.6 116.5 -120.7 115.1 C-179.4 97.8 -179.4 97.8 -188.4 85.3 C-189.5 83 -189.6 81.6 -189.6 79 C-189.7 78.2 -189.7 77.5 -189.7 76.7 C-189.2 72.8 -187.5 70.3 -184.5 67.7 C-168.5 58 -149.1 55 -131 50.9 C-92 42 -53.3 32.2 -15.3 19.6 C-14.6 19.3 -13.8 19.1 -13 18.8 C3.1 13.4 3.1 13.4 6 9.4 C6.8 6.9 6.7 5.7 5.6 3.3 C1.8 0.7 -0.5 0.7 -4.4 3.3 Z M-92.4 122.3 C-88.4 123.3 -88.4 123.3 -88.4 123.3 Z M-85.4 124.3 C-82.4 126.3 -82.4 126.3 -80.2 125.9 C-79.6 125.7 -79 125.5 -78.4 125.3 C-80.7 125 -83 124.7 -85.4 124.3 Z M-78.4 126.3 C-75.3 128.3 -72.9 129.4 -69.4 130.3 C-67.2 129.9 -67.2 129.9 -65.4 129.3 C-66.8 128.8 -68.2 128.3 -69.6 127.8 C-70.4 127.5 -71.2 127.3 -72 127 C-74.4 126.3 -74.4 126.3 -78.4 126.3 Z " transform="translate(377.4,294.7)"/><path d="M0 0 C1 3 1 3 0.3 4.8 C-0.1 5.5 -0.4 6.2 -0.8 6.9 C-1.2 7.6 -1.6 8.4 -2.1 9.2 C-2.3 9.6 -2.3 9.6 -3.4 11.6 C-3.9 12.4 -4.4 13.2 -4.8 14 C-8.4 20.2 -12.2 25.7 -17 31 C-17.5 31.6 -17.9 32.1 -18.4 32.7 C-20.5 35.1 -21.6 36 -24.8 36.3 C-25.5 36.2 -26.3 36.1 -27 36 C-26.9 34.5 -26.8 33.1 -26.6 31.6 C-26.6 30.8 -26.5 30 -26.4 29.2 C-26 27 -26 27 -24 25 C-24.7 28.3 -25.3 31.6 -26 35 C-25.2 34.8 -25.2 34.8 -21 34 C-19.9 32.2 -19.9 32.2 -19 30 C-18 28.7 -16.9 27.4 -15.9 26.1 C-11.2 20.2 -7.7 13.6 -4 7 C-2.7 4.7 -1.3 2.3 0 0 Z " transform="translate(433,329)"/><path d="M0 0 C0.3 0.7 0.7 1.3 1 2 C0.7 2.9 0.3 3.8 0 4.8 C-1.1 8.5 -1.1 10.3 0 14 C0.7 14.8 1.4 15.7 2.1 16.6 C4 19 4 19 3.8 21.4 C2.9 24.2 2 25.6 0 27.8 C-0.6 28.4 -1.3 29.1 -1.9 29.8 C-13.8 42.2 -13.8 42.2 -20 47 C-20.7 46.7 -21.3 46.3 -22 46 C-18.5 42.4 -14.9 38.8 -11 35.5 C1.5 24.6 1.5 24.6 2 20 C0.9 18.2 -0.5 16.5 -1.8 14.8 C-3.8 11.8 -3.5 9.5 -3 6 C-1.5 2.6 -1.5 2.6 0 0 Z " transform="translate(402,350)"/><path d="M0 0 C6.4 0.5 12.4 2 18.5 3.8 C20.6 4.4 22.8 4.9 24.9 5.5 C26 5.8 27.1 6.1 28.2 6.4 C49.4 12.3 70.6 17.7 91.9 22.6 C92.9 22.8 93.8 23.1 94.7 23.3 C96.4 23.7 98.1 24.1 99.9 24.5 C103.5 25.3 106.8 26.1 110 28 C109.8 28.5 109.8 28.5 109 31 C80.4 40.5 38.5 24.2 13.1 11.7 C10.1 10.2 7 8.6 4 7 C3.2 6.6 2.4 6.3 1.6 5.9 C0 5 0 5 -0.8 2.9 C-0.9 2.3 -0.9 1.7 -1 1 C-0.7 0.7 -0.3 0.3 0 0 Z M0 2 C18.3 22.4 62.6 29.3 89 31 C95.5 31.3 101.6 31.2 108 30 C108 29.3 108 28.7 108 28 C106.8 27.7 105.5 27.4 104.2 27.1 C98.2 25.7 92.2 24.3 86.2 22.9 C85.1 22.6 84 22.4 82.9 22.1 C62.7 17.3 42.5 11.9 22.5 6.4 C21.4 6.1 20.4 5.8 19.3 5.5 C17.3 4.9 15.3 4.4 13.3 3.8 C8.8 2.6 4.8 1.7 0 2 Z " transform="translate(137,415)"/></g></svg>